<?xml version="1.0" encoding="UTF-8"?>
<svg version="1.1" xmlns="http://www.w3.org/2000/svg" width="2362" height="2362">
<path d="M0 0 C1.78318302 -0.0069783 3.5663658 -0.01401927 5.34954834 -0.02111816 C11.01688953 -0.04039787 16.68419209 -0.04529371 22.3515625 -0.046875 C23.31562767 -0.04746414 24.27969284 -0.04805328 25.27297211 -0.04866028 C53.18404708 -0.06070828 80.94732649 0.11168811 108.73931885 2.97528076 C111.02112091 3.2076629 113.3039 3.42612246 115.58740234 3.64111328 C179.16182622 9.6690317 241.95217331 22.48195484 302.9765625 41.203125 C303.73201355 41.43388733 304.4874646 41.66464966 305.26580811 41.90240479 C362.31760713 59.35614799 418.72724078 82.2658826 470.9765625 111.203125 C471.89518066 111.7069873 472.81379883 112.21084961 473.76025391 112.72998047 C503.01437677 128.79394533 531.65691761 146.01465466 558.9765625 165.203125 C560.34107153 166.15505444 561.70565654 167.10687496 563.0703125 168.05859375 C581.6687898 181.06974064 599.82826908 194.60533158 617.34765625 209.0390625 C619.08384408 210.46825724 620.8259489 211.89029776 622.57421875 213.3046875 C633.45403859 222.1175018 644.01460679 231.30805682 654.31640625 240.7890625 C656.47071775 242.74407646 658.64566787 244.6645711 660.83984375 246.57421875 C673.2589362 257.41934609 684.93644606 269.06090879 696.6015625 280.703125 C697.21197388 281.31094818 697.82238525 281.91877136 698.45129395 282.54501343 C710.13443202 294.18906629 710.13443202 294.18906629 715.45947266 300.44091797 C718.14913962 303.56515616 721.01617295 306.52421738 723.8515625 309.515625 C728.7405511 314.7093683 733.3790956 320.01334734 737.83203125 325.58984375 C740.14413042 328.40731979 742.56909815 331.08576991 745.0390625 333.765625 C748.80764197 337.86996117 752.36798896 342.06386368 755.80859375 346.4453125 C757.39565804 348.46417266 758.9951366 350.46732776 760.61328125 352.4609375 C768.38163386 362.04935705 775.83720318 371.85601063 783.17871094 381.77441406 C784.30165529 383.29139539 785.42691987 384.80666515 786.55566406 386.31933594 C803.23043335 408.69432106 818.68467124 432.24318966 832.9765625 456.203125 C833.53214844 457.13318359 834.08773438 458.06324219 834.66015625 459.02148438 C842.94689951 472.94653513 850.84738928 487.06003874 858.46240234 501.36279297 C859.89213716 504.04475602 861.33381182 506.71997742 862.77734375 509.39453125 C870.45207605 523.71508176 877.27312544 538.40738251 883.9765625 553.203125 C884.4509375 554.24452637 884.9253125 555.28592773 885.4140625 556.35888672 C914.85103223 621.18085024 935.81754691 689.50100442 949.9765625 759.203125 C950.12331421 759.92485901 950.27006592 760.64659302 950.42126465 761.39019775 C957.80013703 797.89179616 962.21286225 834.83202123 965.21484375 871.9296875 C965.27810349 872.70324081 965.34136322 873.47679413 965.40653992 874.27378845 C966.57779645 889.26302452 967.14291364 904.19534686 967.1796875 919.2265625 C967.18670822 921.00937932 967.19379505 922.79219589 967.20094299 924.57501221 C967.22035078 930.24272013 967.22537712 935.9103872 967.2265625 941.578125 C967.22700436 942.54336845 967.22744621 943.50861191 967.22790146 944.50310516 C967.23458638 972.33789757 967.11579442 1000.03612365 964.22979736 1027.74981689 C963.96203579 1030.34385799 963.70830346 1032.93902728 963.45654297 1035.53466797 C954.74997591 1124.44333455 933.71569928 1212.14582391 854.30322266 1392.85107422 C852.9517045 1395.24719604 851.6371296 1397.66034339 850.33203125 1400.08203125 C835.79055894 1427.02848774 819.57481738 1453.14755436 801.9765625 1478.203125 C801.02463306 1479.56763403 800.07281254 1480.93221904 799.12109375 1482.296875 C786.10994686 1500.8953523 772.57435592 1519.05483158 758.140625 1536.57421875 C756.71143026 1538.31040658 755.28938974 1540.0525114 753.875 1541.80078125 C745.0621857 1552.68060109 735.87163068 1563.24116929 726.390625 1573.54296875 C724.43561104 1575.69728025 722.5151164 1577.87223037 720.60546875 1580.06640625 C709.76034141 1592.4854987 698.11877871 1604.16300856 686.4765625 1615.828125 C685.86873932 1616.43853638 685.26091614 1617.04894775 684.63467407 1617.67785645 C672.99062121 1629.36099452 672.99062121 1629.36099452 666.73876953 1634.68603516 C663.61453134 1637.37570212 660.65547012 1640.24273545 657.6640625 1643.078125 C652.4703192 1647.9671136 647.16634016 1652.6056581 641.58984375 1657.05859375 C638.77236771 1659.37069292 636.09391759 1661.79566065 633.4140625 1664.265625 C629.30972633 1668.03420447 625.11582382 1671.59455146 620.734375 1675.03515625 C618.71551484 1676.62222054 616.71235974 1678.2216991 614.71875 1679.83984375 C605.13033045 1687.60819636 595.32367687 1695.06376568 585.40527344 1702.40527344 C583.88829211 1703.52821779 582.37302235 1704.65348237 580.86035156 1705.78222656 C558.48536644 1722.45699585 534.93649784 1737.91123374 510.9765625 1752.203125 C510.04650391 1752.75871094 509.11644531 1753.31429688 508.15820312 1753.88671875 C494.23315237 1762.17346201 480.11964876 1770.07395178 465.81689453 1777.68896484 C463.13493148 1779.11869966 460.45971008 1780.56037432 457.78515625 1782.00390625 C443.46460574 1789.67863855 428.77230499 1796.49968794 413.9765625 1803.203125 C412.93516113 1803.6775 411.89375977 1804.151875 410.82080078 1804.640625 C335.06330333 1839.04364271 254.40996003 1862.31486596 47.953125 1886.40625 C46.16994198 1886.4132283 44.3867592 1886.42026927 42.60357666 1886.42736816 C36.93623547 1886.44664787 31.26893291 1886.45154371 25.6015625 1886.453125 C24.63749733 1886.45371414 23.67343216 1886.45430328 22.68015289 1886.45491028 C-5.23092208 1886.46695828 -32.99420149 1886.29456189 -60.78619385 1883.43096924 C-63.06799591 1883.1985871 -65.350775 1882.98012754 -67.63427734 1882.76513672 C-131.20870122 1876.7372183 -193.99904831 1863.92429516 -255.0234375 1845.203125 C-255.77888855 1844.97236267 -256.5343396 1844.74160034 -257.31268311 1844.50384521 C-315.27612822 1826.77120394 -372.91569278 1803.55326247 -425.67138672 1773.52978516 C-428.06750854 1772.178267 -430.48065589 1770.8636921 -432.90234375 1769.55859375 C-459.84880024 1755.01712144 -485.96786686 1738.80137988 -511.0234375 1721.203125 C-512.38794653 1720.25119556 -513.75253154 1719.29937504 -515.1171875 1718.34765625 C-533.7156648 1705.33650936 -551.87514408 1691.80091842 -569.39453125 1677.3671875 C-571.13071908 1675.93799276 -572.8728239 1674.51595224 -574.62109375 1673.1015625 C-585.50091359 1664.2887482 -596.06148179 1655.09819318 -606.36328125 1645.6171875 C-608.51759275 1643.66217354 -610.69254287 1641.7416789 -612.88671875 1639.83203125 C-625.3058112 1628.98690391 -636.98332106 1617.34534121 -648.6484375 1605.703125 C-649.25884888 1605.09530182 -649.86926025 1604.48747864 -650.49816895 1603.86123657 C-662.18130702 1592.21718371 -662.18130702 1592.21718371 -667.50634766 1585.96533203 C-670.19601462 1582.84109384 -673.06304795 1579.88203262 -675.8984375 1576.890625 C-680.7874261 1571.6968817 -685.4259706 1566.39290266 -689.87890625 1560.81640625 C-692.19100542 1557.99893021 -694.61597315 1555.32048009 -697.0859375 1552.640625 C-700.85451697 1548.53628883 -704.41486396 1544.34238632 -707.85546875 1539.9609375 C-709.44253304 1537.94207734 -711.0420116 1535.93892224 -712.66015625 1533.9453125 C-720.42850886 1524.35689295 -727.88407818 1514.55023937 -735.22558594 1504.63183594 C-736.34853029 1503.11485461 -737.47379487 1501.59958485 -738.60253906 1500.08691406 C-755.27730835 1477.71192894 -770.73154624 1454.16306034 -785.0234375 1430.203125 C-785.57902344 1429.27306641 -786.13460937 1428.34300781 -786.70703125 1427.38476562 C-794.99377451 1413.45971487 -802.89426428 1399.34621126 -810.50927734 1385.04345703 C-811.93901216 1382.36149398 -813.38068682 1379.68627258 -814.82421875 1377.01171875 C-822.49895105 1362.69116824 -829.32000044 1347.99886749 -836.0234375 1333.203125 C-836.4978125 1332.16172363 -836.9721875 1331.12032227 -837.4609375 1330.04736328 C-866.89790723 1265.22539976 -887.86442191 1196.90524558 -902.0234375 1127.203125 C-902.24356506 1126.12052399 -902.24356506 1126.12052399 -902.46813965 1125.01605225 C-909.84701203 1088.51445384 -914.25973725 1051.57422877 -917.26171875 1014.4765625 C-917.32497849 1013.70300919 -917.38823822 1012.92945587 -917.45341492 1012.13246155 C-918.62467053 997.14323726 -919.18989251 982.21089616 -919.2265625 967.1796875 C-919.2335408 965.39650448 -919.24058177 963.6133217 -919.24768066 961.83013916 C-919.26696037 956.16279797 -919.27185621 950.49549541 -919.2734375 944.828125 C-919.27402664 943.86405983 -919.27461578 942.89999466 -919.27522278 941.90671539 C-919.28727112 913.99484009 -919.11644029 886.22985699 -916.25128174 858.43713379 C-916.01921869 856.16175966 -915.80066436 853.88542406 -915.58544922 851.60839844 C-907.59103021 767.64947577 -888.31660705 684.38435148 -808.0234375 496.203125 C-807.5195752 495.28450684 -807.01571289 494.36588867 -806.49658203 493.41943359 C-790.43261717 464.16531073 -773.21190784 435.52276989 -754.0234375 408.203125 C-753.07150806 406.83861597 -752.11968754 405.47403096 -751.16796875 404.109375 C-738.15682186 385.5108977 -724.62123092 367.35141842 -710.1875 349.83203125 C-708.75830526 348.09584342 -707.33626474 346.3537386 -705.921875 344.60546875 C-697.1090607 333.72564891 -687.91850568 323.16508071 -678.4375 312.86328125 C-676.48248604 310.70896975 -674.5619914 308.53401963 -672.65234375 306.33984375 C-661.80721641 293.9207513 -650.16565371 282.24324144 -638.5234375 270.578125 C-637.91561432 269.96771362 -637.30779114 269.35730225 -636.68154907 268.72839355 C-625.03749621 257.04525548 -625.03749621 257.04525548 -618.78564453 251.72021484 C-615.66140634 249.03054788 -612.70234512 246.16351455 -609.7109375 243.328125 C-604.5171942 238.4391364 -599.21321516 233.8005919 -593.63671875 229.34765625 C-590.81924271 227.03555708 -588.14079259 224.61058935 -585.4609375 222.140625 C-581.35660133 218.37204553 -577.16269882 214.81169854 -572.78125 211.37109375 C-570.76238984 209.78402946 -568.75923474 208.1845509 -566.765625 206.56640625 C-557.17720545 198.79805364 -547.37055187 191.34248432 -537.45214844 184.00097656 C-535.93516711 182.87803221 -534.41989735 181.75276763 -532.90722656 180.62402344 C-510.53224144 163.94925415 -486.98337284 148.49501626 -463.0234375 134.203125 C-462.09337891 133.64753906 -461.16332031 133.09195313 -460.20507812 132.51953125 C-446.28002737 124.23278799 -432.16652376 116.33229822 -417.86376953 108.71728516 C-415.18180648 107.28755034 -412.50658508 105.84587568 -409.83203125 104.40234375 C-395.51148074 96.72761145 -380.81917999 89.90656206 -366.0234375 83.203125 C-364.98203613 82.72875 -363.94063477 82.254375 -362.86767578 81.765625 C-288.80450062 48.13203344 -209.95964539 25.02111603 -47.54296875 2 C-46.34932961 1.90035194 -46.34932961 1.90035194 -45.13157654 1.7986908 C-30.08790878 0.59604028 -15.08910446 0.03681123 0 0 Z " fill="#EAF6FC" transform="translate(1157.0234375,237.796875)"/>
<path d="M0 0 C0.74540039 0.08588379 1.49080078 0.17176758 2.25878906 0.26025391 C32.15326296 3.70662074 61.62276415 14.75406672 88 29 C88.73299316 29.391875 89.46598633 29.78375 90.22119141 30.1875 C99.80649602 35.33073618 109.13013933 40.68115822 118 47 C118.70237793 47.50015625 119.40475586 48.0003125 120.12841797 48.515625 C130.86451684 56.19804977 141.16050232 64.19984205 151 73 C151.92039062 73.80953125 152.84078125 74.6190625 153.7890625 75.453125 C160.63326709 81.58398996 167.16359999 88.03178697 173.6875 94.5 C175.00633179 95.79925415 175.00633179 95.79925415 176.35180664 97.12475586 C181.53061095 102.29674531 186.28573976 107.64350267 190.85571289 113.359375 C192.87244784 115.84292335 194.96099403 118.22397989 197.109375 120.59375 C201.0976077 125.03563924 204.6992159 129.70461117 208.25 134.5 C208.89622314 135.36874756 209.54244629 136.23749512 210.20825195 137.13256836 C263.12408212 208.53604176 298.6671389 290.91597018 332 453 C332.10032532 453.76991272 332.20065063 454.53982544 332.30401611 455.33306885 C343.06585053 538.4482953 333.97256536 627.88783452 298 704 C307.70481715 701.05313581 315.14115856 697.57479473 323 691 C323.84175781 690.29746094 324.68351562 689.59492187 325.55078125 688.87109375 C343.92245173 672.89945487 357.04245077 652.50357386 369.70996094 631.94506836 C371 630 371 630 373 628 C395.82761602 663.38607527 405.2333774 707.99501537 405.13037109 749.61352539 C405.12504708 752.16493778 405.13032486 754.71617132 405.13671875 757.26757812 C405.14441724 771.55649961 404.71487207 785.64806697 402.1875 799.75 C402.00791748 800.77456299 401.82833496 801.79912598 401.64331055 802.85473633 C401.27574149 804.93150955 400.90352976 807.00746715 400.52636719 809.08251953 C400.05283801 811.70713624 399.60553801 814.33469728 399.1640625 816.96484375 C386.6258317 888.41285735 346.95419581 955.82422644 301 1011 C300.58137695 1011.50499023 300.16275391 1012.00998047 299.73144531 1012.53027344 C290.03060059 1024.21587216 279.8340899 1035.35306328 269 1046 C266.11328976 1048.87185582 263.2488802 1051.76412025 260.3984375 1054.671875 C253.68481397 1061.49292317 247.02264832 1068.09193909 239.48828125 1074.0078125 C236.98632351 1076.01094978 234.65660742 1078.12777633 232.3125 1080.3125 C226.27320975 1085.80017004 219.75250768 1090.59106533 213.17382812 1095.40429688 C210.99715147 1097.00209097 208.83409471 1098.61708915 206.671875 1100.234375 C196.59308334 1107.71341613 186.18615531 1114.38053841 175.32080078 1120.65820312 C173.22593528 1121.869373 171.14143938 1123.09645507 169.05859375 1124.328125 C127.66709941 1148.5220863 79.16188877 1164.90510313 30.90625 1165.23828125 C29.76128052 1165.246353 28.61631104 1165.25442474 27.43664551 1165.26274109 C25.0162097 1165.27651083 22.59575505 1165.28726444 20.17529297 1165.29516602 C17.75368359 1165.30658718 15.33209735 1165.32687834 12.91064453 1165.35668945 C-11.04527116 1165.65051629 -33.68859971 1162.2801726 -57 1157 C4.37442072 1184.24425505 80.87917335 1190.5526925 147 1197 C142.1568734 1201.33885312 136.51318151 1204.15055157 130.8125 1207.1875 C129.11444214 1208.09520142 129.11444214 1208.09520142 127.38208008 1209.02124023 C78.69724449 1234.9266011 28.31249886 1256.5369527 -24 1274 C-24.71186462 1274.23807373 -25.42372925 1274.47614746 -26.15716553 1274.72143555 C-64.70162657 1287.57658613 -103.97650275 1297.95630403 -144 1305 C-145.21819427 1305.21496124 -145.21819427 1305.21496124 -146.46099854 1305.43426514 C-169.59101712 1309.48829828 -192.67443831 1312.19673157 -216.10473633 1313.73364258 C-218.49155949 1313.89685311 -220.87736982 1314.07745556 -223.26049805 1314.2878418 C-235.38039037 1315.33050287 -247.53172004 1315.19886979 -259.6875 1315.1875 C-261.46752411 1315.18659363 -261.46752411 1315.18659363 -263.2835083 1315.18566895 C-280.27585406 1315.16213344 -297.10233401 1314.95144337 -314 1313 C-315.21091309 1312.86577637 -316.42182617 1312.73155273 -317.66943359 1312.59326172 C-372.89470101 1306.3573712 -427.59368134 1292.03862081 -476.96972656 1266.06005859 C-479.28985867 1264.84865725 -481.62490497 1263.6687185 -483.9609375 1262.48828125 C-496.09190474 1256.31103269 -507.65447853 1249.51938539 -519 1242 C-519.69432129 1241.54125488 -520.38864258 1241.08250977 -521.10400391 1240.60986328 C-535.84198989 1230.81627939 -549.84289604 1220.08316259 -563.21435547 1208.49853516 C-564.53048311 1207.39402443 -565.87217985 1206.31981063 -567.22705078 1205.26318359 C-575.70989854 1198.58103855 -583.25602579 1191.04765897 -590.86181641 1183.39892578 C-593.12052144 1181.12949982 -595.38972326 1178.87096726 -597.66015625 1176.61328125 C-604.52889934 1169.75046956 -611.23207971 1162.92175564 -617.20947266 1155.25585938 C-619.11813342 1152.85116542 -621.15234018 1150.61567636 -623.25 1148.375 C-637.56042778 1132.62608902 -649.99966014 1114.54936919 -662 1097 C-661.67 1096.34 -661.34 1095.68 -661 1095 C-660.26136719 1095.87140625 -659.52273438 1096.7428125 -658.76171875 1097.640625 C-652.48564402 1105.01976108 -646.11504589 1112.27637883 -639.51416016 1119.36816406 C-637.82906692 1121.18421747 -636.15480555 1123.00996436 -634.48046875 1124.8359375 C-626.61979849 1133.43138529 -626.61979849 1133.43138529 -618.03125 1141.28125 C-615.91978057 1143.06787798 -613.90473577 1144.94229657 -611.88818359 1146.8347168 C-605.49655129 1152.81282142 -598.80333924 1158.28176302 -591.84619141 1163.58642578 C-589.98449147 1165.01187443 -588.13846652 1166.45600313 -586.29296875 1167.90234375 C-548.80701566 1196.99563247 -504.89378573 1215.98946339 -458 1223 C-456.24260498 1223.26453979 -456.24260498 1223.26453979 -454.44970703 1223.53442383 C-448.97427261 1224.20417162 -443.49370944 1224.17381537 -437.984375 1224.2109375 C-435.65884679 1224.23897807 -433.33332603 1224.26764229 -431.0078125 1224.296875 C-427.36490877 1224.33828284 -423.72214864 1224.37520005 -420.07910156 1224.40136719 C-416.54724045 1224.42889311 -413.01599884 1224.4747274 -409.484375 1224.5234375 C-408.39268005 1224.52669037 -407.30098511 1224.52994324 -406.1762085 1224.53329468 C-404.65377533 1224.55814438 -404.65377533 1224.55814438 -403.10058594 1224.58349609 C-402.20982361 1224.59158295 -401.31906128 1224.5996698 -400.40130615 1224.60800171 C-397.54516426 1225.07424911 -396.23603817 1226.22749259 -394 1228 C-391.49839045 1227.75008462 -391.49839045 1227.75008462 -389 1226.75 C-387.7315625 1226.30914063 -387.7315625 1226.30914063 -386.4375 1225.859375 C-385.633125 1225.57578125 -384.82875 1225.2921875 -384 1225 C-380.64325311 1224.04849446 -377.49234488 1223.86558578 -374.00297546 1223.7702179 C-362.09673313 1223.41647681 -350.8055227 1221.31217656 -339.1875 1218.8125 C-337.22849752 1218.40025259 -335.26943122 1217.98830835 -333.31030273 1217.57666016 C-311.36473267 1213.06497638 -311.36473267 1213.06497638 -290.125 1206.078125 C-279.22485554 1201.81275898 -270.02429372 1200.72873443 -258.375 1201.1875 C-245.23862821 1201.69745846 -236.73425862 1199.59904534 -225.88964844 1192.25244141 C-223.18339205 1190.45875985 -220.34181295 1189.00734082 -217.4375 1187.5625 C-216.06658203 1186.87994141 -216.06658203 1186.87994141 -214.66796875 1186.18359375 C-210.56309589 1184.36254473 -206.34872699 1183.09680283 -202 1182 C-202 1181.34 -202 1180.68 -202 1180 C-201.00355469 1179.5875 -200.00710938 1179.175 -198.98046875 1178.75 C-194.97815653 1177.03342813 -191.14762976 1175.0588184 -187.3125 1173 C-186.66216797 1172.65710937 -186.01183594 1172.31421875 -185.34179688 1171.9609375 C-182.66392765 1170.53055679 -180.13795864 1169.10637775 -177.73046875 1167.25 C-176 1166 -176 1166 -173 1166 C-172.773125 1165.401875 -172.54625 1164.80375 -172.3125 1164.1875 C-170.64983458 1161.41639096 -168.75814432 1160.64175257 -166 1159 C-164.66104368 1157.33784732 -163.32869858 1155.67036393 -162 1154 C-160.94130587 1153.05757349 -159.86284869 1152.13721251 -158.7734375 1151.23046875 C-152.68645498 1145.96623751 -147.06884237 1140.2177993 -141.39086914 1134.52124023 C-139.4420313 1132.56704376 -137.48790728 1130.61824853 -135.53320312 1128.66992188 C-128.10616167 1121.29304782 -128.10616167 1121.29304782 -121.125 1113.5 C-117.73153189 1109.50784208 -113.78347421 1106.51109868 -109.5625 1103.4375 C-99.53709135 1096.85036842 -99.53709135 1096.85036842 -92 1088 C-91.76130331 1085.37433638 -91.61825881 1082.74975584 -91.4765625 1080.1171875 C-91.07150708 1077.46772661 -90.52709007 1075.66846056 -89.52734375 1073.234375 C-87.71927158 1068.66758361 -87.30451612 1064.2427928 -86.9375 1059.375 C-86.50396542 1053.91503975 -85.90747984 1049.17648239 -84 1044 C-83.08562792 1040.88596259 -82.23358086 1037.75482673 -81.375 1034.625 C-81.14554688 1033.79355469 -80.91609375 1032.96210937 -80.6796875 1032.10546875 C-80.11837291 1030.07070335 -79.55898972 1028.03540532 -79 1026 C-78.34 1026 -77.68 1026 -77 1026 C-76.75765625 1025.30390625 -76.5153125 1024.6078125 -76.265625 1023.890625 C-74.78486691 1020.50864665 -72.88739091 1017.75979536 -70.75 1014.75 C-69.93419278 1013.59424594 -69.11909008 1012.43799427 -68.3046875 1011.28125 C-67.90862305 1010.72050781 -67.51255859 1010.15976563 -67.10449219 1009.58203125 C-65.15890639 1006.79525053 -63.31893389 1003.94014933 -61.48046875 1001.08203125 C-60 999 -60 999 -58.11328125 997.01171875 C-53.1401274 991.65523864 -52.21860597 986.98730244 -52.26245117 979.84741211 C-52.26817346 976.27714507 -51.96351124 973.91694005 -50.515625 970.62109375 C-48.59414089 966.03033146 -48.55223738 962.10900725 -48.5 957.1875 C-48.443723 951.95775898 -48.25211425 947.3638797 -46.5 942.40234375 C-43.9475601 934.62395066 -44.52973508 926.25737359 -44.48876953 918.15332031 C-44.38612089 904.08734657 -44.38612089 904.08734657 -42.5078125 899.61328125 C-36.63147655 885.5313881 -41.79137045 869.09107792 -46.99023438 855.63964844 C-48.70708317 851.15159979 -50.27044884 846.61311103 -51.8125 842.0625 C-52.10995117 841.18754883 -52.40740234 840.31259766 -52.71386719 839.41113281 C-54.75224601 833.22562653 -55.97156443 827.34485984 -56.671875 820.859375 C-56.95092269 818.42767368 -57.38515912 816.27916417 -58.0625 813.9375 C-59.03359872 810.46395458 -59.23148014 807.0971067 -59.4375 803.5 C-59.73236833 798.89794785 -60.39865595 795.46115648 -62.25390625 791.2890625 C-63.30402434 788.06723421 -63.52640002 784.86647977 -63.875 781.5 C-64.67331005 774.98475989 -65.95882483 771.07711093 -70 766 C-71.25333244 764.27324722 -72.50302895 762.54385223 -73.75 760.8125 C-74.43707031 759.88050781 -75.12414063 758.94851563 -75.83203125 757.98828125 C-78.09734033 754.86582819 -80.26899801 751.6903092 -82.4375 748.5 C-86.13827828 743.10356895 -90.09299494 738.11193924 -94.34765625 733.14453125 C-96 731 -96 731 -96 729 C-96.8964624 728.61630249 -96.8964624 728.61630249 -97.81103516 728.22485352 C-100.23035718 726.87110172 -101.36377831 725.60539949 -103.0234375 723.40234375 C-103.57 722.68240234 -104.1165625 721.96246094 -104.6796875 721.22070312 C-105.23914062 720.46724609 -105.79859375 719.71378906 -106.375 718.9375 C-107.20257812 717.84791992 -107.20257812 717.84791992 -108.046875 716.73632812 C-110.74125302 713.15963617 -113.26512725 709.57488635 -115.60546875 705.7578125 C-120.06788158 698.98560896 -126.15630909 693.56640666 -131.9375 687.9375 C-134.24212277 685.67966835 -136.54239393 683.41747288 -138.83984375 681.15234375 C-139.38619476 680.6142659 -139.93254578 680.07618805 -140.49545288 679.52180481 C-145.31360299 674.74816556 -149.82547723 669.7861073 -154 664.4375 C-156.03795173 662.66998299 -156.03795173 662.66998299 -159.3125 663.0625 C-163.03221894 663.90657856 -163.03221894 663.90657856 -166.5 665.5 C-174.20977041 668.80418732 -183.74837293 669.1403934 -192 668 C-194.90828296 666.13638908 -196.32117043 663.97023694 -198 661 C-200.56361287 657.46162742 -200.56361287 657.46162742 -204 655 C-205.95567597 655.0187445 -207.91135112 655.03839883 -209.86694336 655.06445312 C-219.77732622 655.05611193 -219.77732622 655.05611193 -223.609375 651.74609375 C-225.28503723 649.22901993 -226.64619109 646.69824889 -228 644 C-230.38078579 642.8096071 -231.81902331 642.88160572 -234.47460938 642.88989258 C-235.40317749 642.88931351 -236.33174561 642.88873444 -237.28845215 642.88813782 C-238.29670044 642.89024765 -239.30494873 642.89235748 -240.34375 642.89453125 C-242.47917671 642.88106529 -244.61459405 642.86604034 -246.75 642.84960938 C-250.11621343 642.82685808 -253.48137688 642.81243073 -256.84765625 642.82495117 C-260.09711754 642.83382293 -263.34450359 642.80472339 -266.59375 642.76953125 C-267.58580444 642.78176224 -268.57785889 642.79399323 -269.59997559 642.80659485 C-280.08062878 642.62704444 -286.61526362 637.40115721 -294.140625 630.61328125 C-298.97073885 626.42244717 -303.10350948 624.58378702 -309.52319336 624.69946289 C-313.89207031 625.22958487 -317.61849515 627.06625682 -321.5625 628.9375 C-327.42633355 631.67774183 -332.45859021 633.83874338 -339 634 C-344.39535933 631.59343685 -347.53311598 626.13111875 -350 621 C-350 620.34 -350 619.68 -350 619 C-364.25803921 619.44266812 -364.25803921 619.44266812 -378 623 C-379.11375 623.28875 -380.2275 623.5775 -381.375 623.875 C-390.5643881 626.72687906 -398.5206568 630.67535611 -406.45532227 636.05297852 C-410.81880933 639 -410.81880933 639 -413 639 C-413 639.66 -413 640.32 -413 641 C-413.58483154 641.27102539 -414.16966309 641.54205078 -414.7722168 641.82128906 C-421.87108139 645.22696187 -428.30713991 649.33053003 -434.8125 653.75 C-435.86695313 654.4608374 -436.92140625 655.1716748 -438.0078125 655.90405273 C-440.08224828 657.3046486 -442.15475515 658.70810666 -444.22509766 660.11474609 C-446.5347237 661.68389375 -448.8496785 663.2444917 -451.16796875 664.80078125 C-456.42962103 668.35772605 -461.31600255 672.06607892 -466.01171875 676.34375 C-468.21286929 678.17732137 -470.49384605 679.63023117 -472.9375 681.125 C-478.14875866 684.340924 -483.01214509 687.91298435 -487.875 691.625 C-488.60066162 692.17559082 -489.32632324 692.72618164 -490.07397461 693.29345703 C-497.07937249 698.68497368 -502.45987696 704.68786018 -507.8125 711.6875 C-509.05548108 713.2998713 -510.29896743 714.91185322 -511.54296875 716.5234375 C-512.13770996 717.29526367 -512.73245117 718.06708984 -513.34521484 718.86230469 C-517.17292177 723.80703792 -521.10347297 728.66998108 -525.05078125 733.51953125 C-526.95603338 735.87424893 -526.95603338 735.87424893 -528.31640625 737.9921875 C-531.73178896 743.15273441 -535.55571582 745.86677483 -540.83984375 748.9921875 C-545.29127261 751.82041301 -549.32645522 755.1078202 -553.40429688 758.44458008 C-557.79895765 762 -557.79895765 762 -560 762 C-560 762.66 -560 763.32 -560 764 C-562.28874173 765.33858524 -564.58069656 766.67101014 -566.875 768 C-567.85146484 768.57234375 -567.85146484 768.57234375 -568.84765625 769.15625 C-573.7734375 772 -573.7734375 772 -576 772 C-575.61617955 773.73187276 -575.21692327 775.46032218 -574.8125 777.1875 C-574.59207031 778.15042969 -574.37164063 779.11335938 -574.14453125 780.10546875 C-573.55256549 782.41358031 -572.80649707 784.42582474 -571.81686401 786.60362244 C-567.59480178 796.11078634 -567.29532962 804.39845986 -567.36328125 814.6484375 C-567.35522016 816.31704023 -567.34469007 817.98563265 -567.33183289 819.65420532 C-567.3035246 824.00805039 -567.30266864 828.36141685 -567.30969238 832.71533203 C-567.31706811 839.70238831 -567.2855313 846.68929527 -567.24724388 853.67622757 C-567.23844988 856.10192216 -567.24366761 858.52727905 -567.25080872 860.95297241 C-567.2474229 862.44700206 -567.24367323 863.94103094 -567.23950195 865.43505859 C-567.24125931 866.73043549 -567.24301666 868.02581238 -567.24482727 869.36044312 C-566.989021 873.16321179 -566.11178632 876.36607117 -565 880 C-564.76683436 883.38756367 -564.63505495 886.7339891 -564.609375 890.12695312 C-564.29463016 899.22832466 -558.14724979 904.07547665 -552 910 C-547.39984473 914.43348298 -543.39943738 918.58608121 -540 924 C-539.00882117 925.00874403 -538.00942698 926.00951669 -537 927 C-532.25706858 933.59187079 -528.69674077 940.55596747 -525.38671875 947.94921875 C-517.79032802 964.66127835 -507.87661567 978.65787194 -493.04785156 989.42919922 C-488.00420764 993.12732684 -483.68041585 997.14954063 -479.37109375 1001.69140625 C-476.8244674 1004.17090571 -474.16088399 1006.15183482 -471.25 1008.1875 C-464.57743463 1012.92286898 -460.94744398 1016.88539101 -457.55297852 1024.38549805 C-453.10207252 1033.92783769 -447.31776009 1037.88595202 -437.83349609 1042.15234375 C-436 1043 -436 1043 -433.03125 1044.703125 C-429.14078331 1046.36760302 -425.80885556 1046.4375613 -421.625 1046.5 C-415.39226486 1046.71192097 -410.77251469 1047.54133634 -405 1050 C-399.61745804 1050.45848957 -396.76233007 1049.64508059 -392.1875 1046.875 C-381.70261884 1041.06259985 -369.61378601 1039.40285228 -358 1037 C-356.52024488 1036.6797907 -355.04097864 1036.35730232 -353.5625 1036.03125 C-350.37895761 1035.33310474 -347.19100359 1034.66295089 -344 1034 C-343.13117188 1033.80664062 -342.26234375 1033.61328125 -341.3671875 1033.4140625 C-335.84106543 1032.2187571 -330.40390248 1031.61520857 -324.76171875 1031.24609375 C-320.82404681 1030.91654944 -320.82404681 1030.91654944 -317 1030 C-315.86766813 1028.13673286 -315.86766813 1028.13673286 -315 1026 C-313.265625 1024.32421875 -313.265625 1024.32421875 -311.25 1022.6875 C-308.57595217 1020.43995801 -306.28300621 1018.24375075 -304.125 1015.5 C-301.0688691 1011.75916217 -297.36776681 1009.41184454 -293.375 1006.75 C-291.17554783 1005.12935103 -289.67642544 1003.63363238 -288 1001.5 C-283.81735308 996.20913039 -277.98564068 992.78373981 -272.25390625 989.359375 C-270.10836222 988.18846647 -270.10836222 988.18846647 -269 987 C-268.79463803 983.37954445 -268.65433727 979.76569365 -268.5703125 976.140625 C-268.40495434 971.97911123 -267.94572169 968.49185659 -266.484375 964.578125 C-264.6250087 959.45284831 -264.54470053 954.660295 -264.625 949.25 C-264.63587646 947.79811279 -264.63587646 947.79811279 -264.64697266 946.31689453 C-264.76990244 939.92775267 -265.48799659 934.05411969 -267.2109375 927.87890625 C-268.03715396 924.86444323 -268.53902991 921.90256223 -269 918.8125 C-269.73793812 914.09094674 -270.89017404 909.68265136 -272.4140625 905.15625 C-273 903 -273 903 -273 899 C-273.66 899 -274.32 899 -275 899 C-276.19140625 897.19921875 -276.19140625 897.19921875 -277.5625 894.6875 C-280.52987654 889.53822894 -284.05971253 885.19491259 -287.9140625 880.6875 C-289.87704432 878.15841481 -291.12620279 875.83909383 -292.4375 872.9375 C-294.05624172 869.84793545 -294.05624172 869.84793545 -296.99609375 868.17578125 C-298.65717836 867.87847711 -300.33041129 867.64510321 -302.0078125 867.4609375 C-304.96571038 867.00528221 -307.55062215 866.14488084 -310.34375 865.08935547 C-317.60186471 862.3694216 -323.96648085 861.42193633 -331.72753906 861.88525391 C-334.51338672 862.02592305 -337.29712995 862.08005645 -340.0859375 862.13671875 C-342.30732816 862.19391212 -344.52868291 862.25251698 -346.75 862.3125 C-348.33047119 862.34561279 -348.33047119 862.34561279 -349.94287109 862.37939453 C-359.22733917 862.70508847 -366.80755325 864.72397014 -374.97265625 869.08203125 C-378.48965375 870.67450603 -382.21439822 871.3340145 -386 872 C-384.6092179 878.99364712 -382.55163095 885.30683234 -379.5625 891.75 C-376.39500794 898.60777406 -374.37626708 905.4103243 -372.7265625 912.76953125 C-372.05886508 915.99066013 -372.05886508 915.99066013 -371 919 C-371.88353149 919.37753418 -371.88353149 919.37753418 -372.78491211 919.76269531 C-375.50272508 920.92446785 -378.22011422 922.08722862 -380.9375 923.25 C-382.32678711 923.84361328 -382.32678711 923.84361328 -383.74414062 924.44921875 C-385.12182617 925.03896484 -385.12182617 925.03896484 -386.52734375 925.640625 C-387.44427002 926.0329834 -388.36119629 926.4253418 -389.3059082 926.82958984 C-392.55499197 928.24110843 -395.77502516 929.71224669 -398.98681641 931.20654297 C-402.82285767 932.71844378 -406.0390903 933.30029864 -410 932 C-416.6381276 927.08861276 -421.5042641 920.31887521 -426.18359375 913.59765625 C-428.22645167 910.67614976 -430.42042491 907.90395004 -432.67578125 905.14453125 C-436.74502749 898.554513 -437.92337416 891.14089215 -439.1875 883.625 C-439.36474609 882.64789062 -439.54199219 881.67078125 -439.72460938 880.6640625 C-441.21496039 872.00966897 -442.06776856 864.36025478 -439 856 C-438.80956071 853.79634531 -438.68988017 851.58591648 -438.625 849.375 C-438.27044871 842.97408298 -437.37796337 836.8482967 -436.125 830.5625 C-435.96338379 829.73476074 -435.80176758 828.90702148 -435.63525391 828.05419922 C-434.84981502 824.26287276 -433.96194027 820.77365441 -432.4296875 817.21484375 C-430.93446446 813.60557542 -430.9170506 810.53020133 -430.89453125 806.640625 C-430.41778129 798.59967437 -426.46415568 794.95453512 -420.6875 789.75 C-419.77846924 788.88737549 -418.86943848 788.02475098 -417.93286133 787.13598633 C-412.36974058 781.92906362 -406.65856891 777.12067524 -400.41796875 772.74609375 C-395.96667316 769.53166867 -392.26747404 765.75810915 -389.0625 761.3125 C-384.39550358 756.07980704 -377.22384095 754.25405583 -370.625 752.52734375 C-369.85623535 752.31815811 -369.0874707 752.10897247 -368.29541016 751.89344788 C-365.86568408 751.23345966 -363.43314918 750.58474285 -361 749.9375 C-358.5673366 749.28506432 -356.13541087 748.63010811 -353.70458984 747.97084045 C-352.20087443 747.56354151 -350.69605702 747.16027945 -349.18994141 746.76194763 C-345.660484 745.81101012 -342.25707493 744.74848081 -338.8515625 743.41625977 C-331.92052745 740.77782713 -325.10428502 740.80221978 -317.76953125 740.7265625 C-316.12610497 740.70777039 -316.12610497 740.70777039 -314.44947815 740.68859863 C-269.71088153 740.27590611 -269.71088153 740.27590611 -249 746 C-247.15516594 746.45141279 -245.31011572 746.90194312 -243.46484375 747.3515625 C-232.54295121 750.19745754 -226.40571586 753.55224223 -220.5234375 763.49609375 C-219.52287308 765.29657464 -218.55280485 767.11424704 -217.609375 768.9453125 C-215.80173304 772.37632225 -213.82671361 775.68827338 -211.8125 779 C-207.74420555 785.71342936 -203.79847461 792.49292357 -199.89379883 799.30273438 C-197.76587409 803.00182492 -195.60069809 806.65773901 -193.30859375 810.2578125 C-191.53457983 813.07439968 -190.0297542 815.82792049 -188.8125 818.9375 C-188.50957031 819.68902344 -188.20664063 820.44054688 -187.89453125 821.21484375 C-185.23054618 829.50926014 -184.70724222 837.09784395 -184.69503975 845.77715302 C-184.6913229 847.90713692 -184.67445318 850.03667671 -184.65428162 852.16656494 C-184.59938392 858.21610168 -184.56833309 864.26570182 -184.54370117 870.31542969 C-184.52765695 874.03479128 -184.49726862 877.75383511 -184.45893669 881.47303009 C-184.44743616 882.8745405 -184.44135768 884.27610812 -184.44125557 885.67766571 C-184.44044396 893.85399357 -183.7127449 901.1744683 -181.67900085 909.09487915 C-180.75323226 913.05580148 -180.56617232 916.81145783 -180.6015625 920.86328125 C-180.59869232 921.62497116 -180.59582214 922.38666107 -180.59286499 923.1714325 C-180.59085256 924.75500244 -180.59618076 926.33859889 -180.60888672 927.92211914 C-180.62509708 930.32690097 -180.60888438 932.73003166 -180.58984375 935.13476562 C-180.5918245 936.69010781 -180.5956647 938.24544899 -180.6015625 939.80078125 C-180.59548981 940.50616531 -180.58941711 941.21154938 -180.5831604 941.93830872 C-180.6963198 950.05366934 -183.235657 955.27625097 -189 961 C-191.62459349 964.92176289 -193.99108312 968.99117207 -196.375 973.0625 C-197.00921875 974.13177734 -197.6434375 975.20105469 -198.296875 976.30273438 C-200.84534812 980.60653337 -203.38499044 984.91247516 -205.84716797 989.26635742 C-208.97774944 994.77449322 -211.98110869 999.61965698 -216.375 1004.1875 C-216.86830811 1004.70594482 -217.36161621 1005.22438965 -217.86987305 1005.75854492 C-223.12750981 1011.2404221 -228.53279215 1016.58789124 -233.94873047 1021.9128418 C-237.33890675 1025.2594518 -240.60188226 1028.64004479 -243.703125 1032.2578125 C-246.24398247 1035.20740248 -248.82212348 1037.70393708 -251.9375 1040.0625 C-257.89046893 1044.68258028 -263.52681702 1049.43687122 -268.75 1054.875 C-280.42491149 1066.64112174 -294.22505084 1073.10397953 -309.45214844 1079.00439453 C-312.55003298 1080.2149324 -315.63800614 1081.44945276 -318.7265625 1082.68359375 C-321.19261709 1083.66429198 -323.6587638 1084.64475859 -326.125 1085.625 C-327.29224609 1086.09252686 -328.45949219 1086.56005371 -329.66210938 1087.04174805 C-336.54573642 1089.76353108 -343.43757961 1092.14866188 -350.54638672 1094.21630859 C-352.92097459 1094.76816191 -352.92097459 1094.76816191 -354 1096 C-356.18288842 1096.30578603 -358.37189103 1096.56808378 -360.5625 1096.8125 C-366.91218071 1097.5780752 -372.96649808 1098.87811289 -379.13671875 1100.54272461 C-383.4436566 1101.68332421 -387.6390708 1102.37844094 -392.0625 1102.875 C-397.11074448 1103.58374368 -399.83565444 1104.72900652 -403.38671875 1108.359375 C-405.68164846 1110.69320182 -408.32944731 1112.44542385 -411.0078125 1114.3125 C-413.19527286 1116.05810168 -413.19527286 1116.05810168 -415.3125 1118.8671875 C-418.0787778 1122.27945703 -421.27362622 1124.64856727 -424.875 1127.125 C-425.46152344 1127.54136719 -426.04804687 1127.95773437 -426.65234375 1128.38671875 C-432.89256756 1132.76173281 -438.22901374 1136.22290137 -446 1137 C-446.33 1137.33 -446.66 1137.66 -447 1138 C-448.5159375 1138.185625 -448.5159375 1138.185625 -450.0625 1138.375 C-453.54881841 1138.92838388 -456.36895892 1139.87209293 -459.625 1141.17578125 C-463.61238002 1142.55955952 -467.72933967 1143.37057279 -471.8515625 1144.25390625 C-475.00726008 1144.94922023 -475.00726008 1144.94922023 -478.0234375 1146.02734375 C-506.29810615 1155.26670398 -543.11004091 1137.14739119 -568 1125 C-627.86128384 1094.28486364 -667.97479645 1040.33074609 -688.77441406 977.33105469 C-696.05931391 954.67609589 -700.49364259 931.67353358 -703.6875 908.125 C-703.86671997 906.82647095 -703.86671997 906.82647095 -704.04956055 905.50170898 C-716.10415696 811.86691123 -694.56341648 709.37291299 -653.25634766 621.67285156 C-652.1407423 619.29942611 -651.05296713 616.91656174 -649.98046875 614.5234375 C-644.43933814 602.24841462 -637.79248736 590.61948901 -631 579 C-630.5265918 578.18853516 -630.05318359 577.37707031 -629.56542969 576.54101562 C-608.53142282 540.721027 -581.50673277 510.28917525 -552.20874023 481.07836914 C-550.03575665 478.91082358 -547.86827637 476.737875 -545.70117188 474.56445312 C-544.29198771 473.15592873 -542.88249394 471.747714 -541.47265625 470.33984375 C-540.83916763 469.7043309 -540.20567902 469.06881805 -539.55299377 468.41404724 C-535.74044082 464.62114193 -531.81216308 461.01369911 -527.73944092 457.50132751 C-525.51751378 455.58356169 -523.35369844 453.60530751 -521.1875 451.625 C-515.93801145 446.89486725 -510.51631394 442.41451049 -505 438 C-504.49017578 437.59056152 -503.98035156 437.18112305 -503.45507812 436.75927734 C-440.49413692 386.30190127 -368.00544406 348.63081062 -288 335 C-286.85950195 334.80100098 -285.71900391 334.60200195 -284.54394531 334.39697266 C-249.46005789 328.5336512 -210.67952872 327.93016572 -175.4375 333.0625 C-174.19871094 333.23910156 -172.95992187 333.41570312 -171.68359375 333.59765625 C-170.79800781 333.73042969 -169.91242187 333.86320312 -169 334 C-170.50888522 339.11666847 -173.63805879 342.1926272 -177.25 345.9375 C-177.89388672 346.61554688 -178.53777344 347.29359375 -179.20117188 347.9921875 C-186.11054638 355.21708796 -193.2069929 362.26234579 -200.32128906 369.28491211 C-205.44025909 374.35453711 -210.33378442 379.51236259 -215 385 C-215.91120649 386.03392365 -216.82387565 387.06656082 -217.73828125 388.09765625 C-233.207641 405.91441505 -247.94846295 427.44294692 -247.296875 452.0078125 C-246.60587716 458.97234332 -244.68884538 465.55846171 -242 472 C-241.52691406 471.04222656 -241.05382812 470.08445312 -240.56640625 469.09765625 C-238.77996877 465.49272525 -236.97592738 461.8968962 -235.16308594 458.30517578 C-234.41130674 456.81518855 -233.66179799 455.32405261 -232.91503906 453.83154297 C-223.03837558 434.17344553 -210.21964837 416.55385209 -195.26171875 400.4453125 C-193.3095112 398.3346356 -191.42693722 396.18772443 -189.5625 394 C-183.24815563 386.74743937 -176.32685684 379.97567047 -169.015625 373.734375 C-166.69885379 371.74087419 -164.44580016 369.68445612 -162.1875 367.625 C-157.47008309 363.37217718 -152.59936585 359.34658441 -147.66210938 355.35302734 C-145.77171805 353.81416884 -143.89307293 352.26165405 -142.015625 350.70703125 C-135.37819368 345.21173562 -128.73109189 339.7392195 -121.9375 334.4375 C-105.08525888 321.28175449 -88.52304022 307.71496422 -73 293 C-72.47019531 292.49887695 -71.94039062 291.99775391 -71.39453125 291.48144531 C-45.36112093 266.66931731 -24.77716246 233.85886565 -23.56640625 197.02734375 C-23.54266667 194.327956 -23.53702113 191.63611011 -23.5625 188.9375 C-23.56620605 188.22422546 -23.56991211 187.51095093 -23.57373047 186.77606201 C-24.03118385 124.41858123 -59.42364805 63.58590885 -93.73388672 13.47241211 C-94.29350098 12.6500708 -94.85311523 11.82772949 -95.4296875 10.98046875 C-96.17581299 9.89608521 -96.17581299 9.89608521 -96.93701172 8.78979492 C-98 7 -98 7 -98 5 C-91.01280808 3.5925595 -84.01351511 2.26959812 -77 1 C-76.14003418 0.84031738 -75.28006836 0.68063477 -74.39404297 0.51611328 C-50.11705969 -3.8654469 -24.39312002 -3.22987794 0 0 Z " fill="#0097D8" transform="translate(1256,573)"/>
<path d="M0 0 C1.78318302 -0.0069783 3.5663658 -0.01401927 5.34954834 -0.02111816 C11.01688953 -0.04039787 16.68419209 -0.04529371 22.3515625 -0.046875 C23.31562767 -0.04746414 24.27969284 -0.04805328 25.27297211 -0.04866028 C53.18404708 -0.06070828 80.94732649 0.11168811 108.73931885 2.97528076 C111.02112091 3.2076629 113.3039 3.42612246 115.58740234 3.64111328 C179.16182622 9.6690317 241.95217331 22.48195484 302.9765625 41.203125 C303.73201355 41.43388733 304.4874646 41.66464966 305.26580811 41.90240479 C362.31760713 59.35614799 418.72724078 82.2658826 470.9765625 111.203125 C471.89518066 111.7069873 472.81379883 112.21084961 473.76025391 112.72998047 C503.01437677 128.79394533 531.65691761 146.01465466 558.9765625 165.203125 C560.34107153 166.15505444 561.70565654 167.10687496 563.0703125 168.05859375 C581.6687898 181.06974064 599.82826908 194.60533158 617.34765625 209.0390625 C619.08384408 210.46825724 620.8259489 211.89029776 622.57421875 213.3046875 C633.45403859 222.1175018 644.01460679 231.30805682 654.31640625 240.7890625 C656.47071775 242.74407646 658.64566787 244.6645711 660.83984375 246.57421875 C673.2589362 257.41934609 684.93644606 269.06090879 696.6015625 280.703125 C697.21197388 281.31094818 697.82238525 281.91877136 698.45129395 282.54501343 C710.13443202 294.18906629 710.13443202 294.18906629 715.45947266 300.44091797 C718.14913962 303.56515616 721.01617295 306.52421738 723.8515625 309.515625 C728.7405511 314.7093683 733.3790956 320.01334734 737.83203125 325.58984375 C740.14413042 328.40731979 742.56909815 331.08576991 745.0390625 333.765625 C748.80764197 337.86996117 752.36798896 342.06386368 755.80859375 346.4453125 C757.39565804 348.46417266 758.9951366 350.46732776 760.61328125 352.4609375 C768.38163386 362.04935705 775.83720318 371.85601063 783.17871094 381.77441406 C784.30165529 383.29139539 785.42691987 384.80666515 786.55566406 386.31933594 C803.23043335 408.69432106 818.68467124 432.24318966 832.9765625 456.203125 C833.53214844 457.13318359 834.08773438 458.06324219 834.66015625 459.02148438 C842.94689951 472.94653513 850.84738928 487.06003874 858.46240234 501.36279297 C859.89213716 504.04475602 861.33381182 506.71997742 862.77734375 509.39453125 C870.45207605 523.71508176 877.27312544 538.40738251 883.9765625 553.203125 C884.4509375 554.24452637 884.9253125 555.28592773 885.4140625 556.35888672 C914.85103223 621.18085024 935.81754691 689.50100442 949.9765625 759.203125 C950.12331421 759.92485901 950.27006592 760.64659302 950.42126465 761.39019775 C957.80013703 797.89179616 962.21286225 834.83202123 965.21484375 871.9296875 C965.27810349 872.70324081 965.34136322 873.47679413 965.40653992 874.27378845 C966.57779645 889.26302452 967.14291364 904.19534686 967.1796875 919.2265625 C967.18670822 921.00937932 967.19379505 922.79219589 967.20094299 924.57501221 C967.22035078 930.24272013 967.22537712 935.9103872 967.2265625 941.578125 C967.22700436 942.54336845 967.22744621 943.50861191 967.22790146 944.50310516 C967.23458638 972.33789757 967.11579442 1000.03612365 964.22979736 1027.74981689 C963.96203579 1030.34385799 963.70830346 1032.93902728 963.45654297 1035.53466797 C954.74997591 1124.44333455 933.71569928 1212.14582391 854.30322266 1392.85107422 C852.9517045 1395.24719604 851.6371296 1397.66034339 850.33203125 1400.08203125 C835.79055894 1427.02848774 819.57481738 1453.14755436 801.9765625 1478.203125 C801.02463306 1479.56763403 800.07281254 1480.93221904 799.12109375 1482.296875 C786.10994686 1500.8953523 772.57435592 1519.05483158 758.140625 1536.57421875 C756.71143026 1538.31040658 755.28938974 1540.0525114 753.875 1541.80078125 C745.0621857 1552.68060109 735.87163068 1563.24116929 726.390625 1573.54296875 C724.43561104 1575.69728025 722.5151164 1577.87223037 720.60546875 1580.06640625 C709.76034141 1592.4854987 698.11877871 1604.16300856 686.4765625 1615.828125 C685.86873932 1616.43853638 685.26091614 1617.04894775 684.63467407 1617.67785645 C672.99062121 1629.36099452 672.99062121 1629.36099452 666.73876953 1634.68603516 C663.61453134 1637.37570212 660.65547012 1640.24273545 657.6640625 1643.078125 C652.4703192 1647.9671136 647.16634016 1652.6056581 641.58984375 1657.05859375 C638.77236771 1659.37069292 636.09391759 1661.79566065 633.4140625 1664.265625 C629.30972633 1668.03420447 625.11582382 1671.59455146 620.734375 1675.03515625 C618.71551484 1676.62222054 616.71235974 1678.2216991 614.71875 1679.83984375 C605.13033045 1687.60819636 595.32367687 1695.06376568 585.40527344 1702.40527344 C583.88829211 1703.52821779 582.37302235 1704.65348237 580.86035156 1705.78222656 C558.48536644 1722.45699585 534.93649784 1737.91123374 510.9765625 1752.203125 C510.04650391 1752.75871094 509.11644531 1753.31429688 508.15820312 1753.88671875 C494.23315237 1762.17346201 480.11964876 1770.07395178 465.81689453 1777.68896484 C463.13493148 1779.11869966 460.45971008 1780.56037432 457.78515625 1782.00390625 C443.46460574 1789.67863855 428.77230499 1796.49968794 413.9765625 1803.203125 C412.93516113 1803.6775 411.89375977 1804.151875 410.82080078 1804.640625 C335.06330333 1839.04364271 254.40996003 1862.31486596 47.953125 1886.40625 C46.16994198 1886.4132283 44.3867592 1886.42026927 42.60357666 1886.42736816 C36.93623547 1886.44664787 31.26893291 1886.45154371 25.6015625 1886.453125 C24.63749733 1886.45371414 23.67343216 1886.45430328 22.68015289 1886.45491028 C-5.23092208 1886.46695828 -32.99420149 1886.29456189 -60.78619385 1883.43096924 C-63.06799591 1883.1985871 -65.350775 1882.98012754 -67.63427734 1882.76513672 C-131.20870122 1876.7372183 -193.99904831 1863.92429516 -255.0234375 1845.203125 C-255.77888855 1844.97236267 -256.5343396 1844.74160034 -257.31268311 1844.50384521 C-315.27612822 1826.77120394 -372.91569278 1803.55326247 -425.67138672 1773.52978516 C-428.06750854 1772.178267 -430.48065589 1770.8636921 -432.90234375 1769.55859375 C-459.84880024 1755.01712144 -485.96786686 1738.80137988 -511.0234375 1721.203125 C-512.38794653 1720.25119556 -513.75253154 1719.29937504 -515.1171875 1718.34765625 C-533.7156648 1705.33650936 -551.87514408 1691.80091842 -569.39453125 1677.3671875 C-571.13071908 1675.93799276 -572.8728239 1674.51595224 -574.62109375 1673.1015625 C-585.50091359 1664.2887482 -596.06148179 1655.09819318 -606.36328125 1645.6171875 C-608.51759275 1643.66217354 -610.69254287 1641.7416789 -612.88671875 1639.83203125 C-625.3058112 1628.98690391 -636.98332106 1617.34534121 -648.6484375 1605.703125 C-649.25884888 1605.09530182 -649.86926025 1604.48747864 -650.49816895 1603.86123657 C-662.18130702 1592.21718371 -662.18130702 1592.21718371 -667.50634766 1585.96533203 C-670.19601462 1582.84109384 -673.06304795 1579.88203262 -675.8984375 1576.890625 C-680.7874261 1571.6968817 -685.4259706 1566.39290266 -689.87890625 1560.81640625 C-692.19100542 1557.99893021 -694.61597315 1555.32048009 -697.0859375 1552.640625 C-700.85451697 1548.53628883 -704.41486396 1544.34238632 -707.85546875 1539.9609375 C-709.44253304 1537.94207734 -711.0420116 1535.93892224 -712.66015625 1533.9453125 C-720.42850886 1524.35689295 -727.88407818 1514.55023937 -735.22558594 1504.63183594 C-736.34853029 1503.11485461 -737.47379487 1501.59958485 -738.60253906 1500.08691406 C-755.27730835 1477.71192894 -770.73154624 1454.16306034 -785.0234375 1430.203125 C-785.57902344 1429.27306641 -786.13460937 1428.34300781 -786.70703125 1427.38476562 C-794.99377451 1413.45971487 -802.89426428 1399.34621126 -810.50927734 1385.04345703 C-811.93901216 1382.36149398 -813.38068682 1379.68627258 -814.82421875 1377.01171875 C-822.49895105 1362.69116824 -829.32000044 1347.99886749 -836.0234375 1333.203125 C-836.4978125 1332.16172363 -836.9721875 1331.12032227 -837.4609375 1330.04736328 C-866.89790723 1265.22539976 -887.86442191 1196.90524558 -902.0234375 1127.203125 C-902.24356506 1126.12052399 -902.24356506 1126.12052399 -902.46813965 1125.01605225 C-909.84701203 1088.51445384 -914.25973725 1051.57422877 -917.26171875 1014.4765625 C-917.32497849 1013.70300919 -917.38823822 1012.92945587 -917.45341492 1012.13246155 C-918.62467053 997.14323726 -919.18989251 982.21089616 -919.2265625 967.1796875 C-919.2335408 965.39650448 -919.24058177 963.6133217 -919.24768066 961.83013916 C-919.26696037 956.16279797 -919.27185621 950.49549541 -919.2734375 944.828125 C-919.27402664 943.86405983 -919.27461578 942.89999466 -919.27522278 941.90671539 C-919.28727112 913.99484009 -919.11644029 886.22985699 -916.25128174 858.43713379 C-916.01921869 856.16175966 -915.80066436 853.88542406 -915.58544922 851.60839844 C-907.59103021 767.64947577 -888.31660705 684.38435148 -808.0234375 496.203125 C-807.5195752 495.28450684 -807.01571289 494.36588867 -806.49658203 493.41943359 C-790.43261717 464.16531073 -773.21190784 435.52276989 -754.0234375 408.203125 C-753.07150806 406.83861597 -752.11968754 405.47403096 -751.16796875 404.109375 C-738.15682186 385.5108977 -724.62123092 367.35141842 -710.1875 349.83203125 C-708.75830526 348.09584342 -707.33626474 346.3537386 -705.921875 344.60546875 C-697.1090607 333.72564891 -687.91850568 323.16508071 -678.4375 312.86328125 C-676.48248604 310.70896975 -674.5619914 308.53401963 -672.65234375 306.33984375 C-661.80721641 293.9207513 -650.16565371 282.24324144 -638.5234375 270.578125 C-637.91561432 269.96771362 -637.30779114 269.35730225 -636.68154907 268.72839355 C-625.03749621 257.04525548 -625.03749621 257.04525548 -618.78564453 251.72021484 C-615.66140634 249.03054788 -612.70234512 246.16351455 -609.7109375 243.328125 C-604.5171942 238.4391364 -599.21321516 233.8005919 -593.63671875 229.34765625 C-590.81924271 227.03555708 -588.14079259 224.61058935 -585.4609375 222.140625 C-581.35660133 218.37204553 -577.16269882 214.81169854 -572.78125 211.37109375 C-570.76238984 209.78402946 -568.75923474 208.1845509 -566.765625 206.56640625 C-557.17720545 198.79805364 -547.37055187 191.34248432 -537.45214844 184.00097656 C-535.93516711 182.87803221 -534.41989735 181.75276763 -532.90722656 180.62402344 C-510.53224144 163.94925415 -486.98337284 148.49501626 -463.0234375 134.203125 C-462.09337891 133.64753906 -461.16332031 133.09195313 -460.20507812 132.51953125 C-446.28002737 124.23278799 -432.16652376 116.33229822 -417.86376953 108.71728516 C-415.18180648 107.28755034 -412.50658508 105.84587568 -409.83203125 104.40234375 C-395.51148074 96.72761145 -380.81917999 89.90656206 -366.0234375 83.203125 C-364.98203613 82.72875 -363.94063477 82.254375 -362.86767578 81.765625 C-288.80450062 48.13203344 -209.95964539 25.02111603 -47.54296875 2 C-46.34932961 1.90035194 -46.34932961 1.90035194 -45.13157654 1.7986908 C-30.08790878 0.59604028 -15.08910446 0.03681123 0 0 Z M-86.0234375 188.203125 C-86.76952271 188.26628906 -87.51560791 188.32945312 -88.28430176 188.39453125 C-148.71138603 193.55259399 -208.19822289 204.83401014 -266.0234375 223.203125 C-266.68857361 223.41430969 -267.35370972 223.62549438 -268.03900146 223.84307861 C-288.01060174 230.2025113 -307.63997937 237.20474637 -327.0234375 245.203125 C-328.16586914 245.67331055 -329.30830078 246.14349609 -330.48535156 246.62792969 C-347.54944479 253.69371766 -364.22528959 261.43932826 -380.78222656 269.60595703 C-383.67801401 271.03291104 -386.57980162 272.44651773 -389.484375 273.85546875 C-423.87409778 290.64764018 -457.3096547 310.98827051 -488.05371094 333.75537109 C-490.54164679 335.58401011 -493.05898487 337.36868585 -495.58081055 339.15014648 C-507.86594107 347.83296026 -519.57161773 357.19210833 -531.20751953 366.71923828 C-532.78643471 368.00945695 -534.37122377 369.29248088 -535.95703125 370.57421875 C-547.85578833 380.20991356 -559.28713428 390.32314231 -570.42578125 400.82421875 C-572.64978643 402.92069935 -574.88686277 404.99920215 -577.15234375 407.05078125 C-584.08515091 413.33571426 -590.77154389 419.8461356 -597.3984375 426.453125 C-598.24301514 427.29311035 -599.08759277 428.1330957 -599.95776367 428.99853516 C-604.25894061 433.31036595 -608.40480889 437.69065196 -612.37451172 442.30908203 C-615.12236689 445.46541316 -618.02021843 448.4786717 -620.8984375 451.515625 C-625.73323948 456.65682221 -630.35083743 461.8893701 -634.7578125 467.40625 C-637.40279893 470.67144015 -640.14652359 473.84067519 -642.8984375 477.015625 C-648.27074457 483.24810957 -653.41658251 489.62472084 -658.43652344 496.14355469 C-659.57238562 497.61772906 -660.71142162 499.08946013 -661.85253906 500.55957031 C-670.83104474 512.13276124 -679.44751209 523.86935612 -687.58447266 536.04980469 C-688.92540161 538.05642046 -690.27547449 540.05649228 -691.62890625 542.0546875 C-729.83341845 598.63919641 -760.34358148 659.85727179 -783.0234375 724.203125 C-783.26622437 724.88894653 -783.50901123 725.57476807 -783.75915527 726.28137207 C-791.65793691 748.62174842 -798.19928732 771.23874519 -804.0234375 794.203125 C-804.20648437 794.9219989 -804.38953125 795.6408728 -804.578125 796.38153076 C-815.3340409 838.72448612 -822.12912611 881.80501872 -825.7734375 925.328125 C-825.83269409 926.03391693 -825.89195068 926.73970886 -825.95300293 927.46688843 C-827.67769676 948.39126542 -828.23172269 969.27346783 -828.2109375 990.265625 C-828.21000092 991.49600494 -828.20906433 992.72638489 -828.20809937 993.99404907 C-828.14937877 1029.75489206 -825.43454137 1064.72120011 -821.0234375 1100.203125 C-820.93878235 1100.88979248 -820.8541272 1101.57645996 -820.76690674 1102.28393555 C-812.07159827 1172.45121586 -791.8343076 1242.3025684 -764.0234375 1307.203125 C-763.51377441 1308.39599121 -763.00411133 1309.58885742 -762.47900391 1310.81787109 C-750.03251324 1339.72725908 -736.02181047 1368.09169993 -720.0234375 1395.203125 C-719.54277832 1396.02522461 -719.06211914 1396.84732422 -718.56689453 1397.69433594 C-707.23300052 1417.05496947 -695.30460202 1436.11522684 -682.0234375 1454.203125 C-681.23054082 1455.31851683 -680.44023146 1456.43575183 -679.65234375 1457.5546875 C-670.56947381 1470.44644396 -660.97785314 1482.97223177 -651.0234375 1495.203125 C-650.33121094 1496.05777344 -649.63898438 1496.91242188 -648.92578125 1497.79296875 C-640.46189331 1508.19743065 -631.86197515 1518.43193651 -622.7265625 1528.25390625 C-620.65813432 1530.48819712 -618.64968641 1532.76838534 -616.65234375 1535.06640625 C-607.37227419 1545.70971375 -597.488301 1555.82899657 -587.5234375 1565.828125 C-586.43035278 1566.92809814 -586.43035278 1566.92809814 -585.31518555 1568.05029297 C-581.33273931 1572.02135688 -577.25210912 1575.80758372 -572.99267578 1579.47900391 C-569.64027697 1582.41411926 -566.43833052 1585.50712723 -563.2109375 1588.578125 C-557.89530636 1593.5983068 -552.50684774 1598.41411879 -546.78515625 1602.97265625 C-543.52875525 1605.60264914 -540.37332012 1608.33658353 -537.2109375 1611.078125 C-530.32016179 1617.01799795 -523.23103588 1622.65437788 -516.0234375 1628.203125 C-515.2298584 1628.81736328 -514.4362793 1629.43160156 -513.61865234 1630.06445312 C-502.95776004 1638.30946755 -492.23159917 1646.37644099 -481.02441406 1653.86572266 C-478.91256823 1655.27722723 -476.80773184 1656.69882161 -474.703125 1658.12109375 C-402.28713057 1706.90577133 -323.28838235 1743.38797791 122.9765625 1783.203125 C124.97130346 1782.83305993 126.96609416 1782.46326284 128.9609375 1782.09375 C185.21576697 1771.45657415 240.35477983 1754.75235476 292.9765625 1732.203125 C294.16942871 1731.69346191 295.36229492 1731.18379883 296.59130859 1730.65869141 C325.49871576 1718.21305355 353.87136051 1704.20864991 380.9765625 1688.203125 C382.23364014 1687.46618408 382.23364014 1687.46618408 383.51611328 1686.71435547 C420.9354967 1664.73995813 457.08481834 1640.02122797 490.03125 1611.71484375 C492.83035329 1609.32781004 495.67341341 1607.00952349 498.5390625 1604.703125 C503.52824668 1600.64486732 508.25326865 1596.35796934 512.95703125 1591.9765625 C515.2189712 1589.87815935 517.52694441 1587.84063158 519.85546875 1585.81640625 C530.85106912 1576.23083145 541.2745992 1565.998522 551.6015625 1555.703125 C552.43010742 1554.87917236 553.25865234 1554.05521973 554.11230469 1553.20629883 C558.3433199 1548.96453845 562.41253431 1544.64805031 566.31884766 1540.10595703 C569.07049984 1536.94743316 571.97048361 1533.93059583 574.8515625 1530.890625 C579.68636448 1525.74942779 584.30396243 1520.5168799 588.7109375 1515 C591.35592393 1511.73480985 594.09964859 1508.56557481 596.8515625 1505.390625 C602.79136425 1498.49978233 608.42781104 1491.41072903 613.9765625 1484.203125 C614.59080078 1483.4095459 615.20503906 1482.6159668 615.83789062 1481.79833984 C624.04993757 1471.18007484 632.09051847 1460.50036873 639.54882812 1449.33740234 C641.12537123 1446.98067528 642.7149751 1444.63301827 644.3046875 1442.28515625 C663.8321699 1413.34258924 681.38165581 1383.2826436 697.03582764 1352.078125 C697.66324628 1350.82760266 698.29170625 1349.57760223 698.92120361 1348.328125 C729.55613603 1287.51263783 751.48577377 1222.39932489 765.24023438 1155.74707031 C765.90714934 1152.53721033 766.60071784 1149.33470471 767.3046875 1146.1328125 C773.31626267 1118.26011138 776.77669126 1089.83231284 779.2890625 1061.453125 C779.37028351 1060.54292603 779.45150452 1059.63272705 779.53518677 1058.69494629 C781.50197241 1036.32773934 782.18682848 1014.02791114 782.1640625 991.578125 C782.16312592 990.37358673 782.16218933 989.16904846 782.16122437 987.92800903 C782.00659585 895.64372908 765.51993307 805.16723799 717.9765625 675.203125 C717.21859375 673.43340332 717.21859375 673.43340332 716.4453125 671.62792969 C703.99689797 642.70600741 689.98952416 614.32092104 673.9765625 587.203125 C673.23962158 585.94604736 673.23962158 585.94604736 672.48779297 584.66357422 C650.51339563 547.2441908 625.79466547 511.09486916 597.48828125 478.1484375 C595.10124754 475.34933421 592.78296099 472.50627409 590.4765625 469.640625 C586.3548639 464.57344715 581.98743648 459.77746441 577.546875 454.9921875 C575.39578821 452.6580295 573.29730592 450.29565883 571.2265625 447.890625 C568.55086321 444.80082939 565.72318207 441.92551538 562.8059082 439.06494141 C561.09681106 437.32550796 559.51770406 435.53524038 557.94140625 433.67578125 C553.67175684 428.76698305 549.09660846 424.17253085 544.48852539 419.5847168 C543.04131865 418.14287279 541.59954224 416.69575384 540.15820312 415.24804688 C535.5150071 410.60151769 530.81347466 406.08102446 525.82446289 401.8059082 C522.67953728 399.0781454 519.68516062 396.19131761 516.6640625 393.328125 C511.52286529 388.49332302 506.2903174 383.87572507 500.7734375 379.46875 C497.50824576 376.82376228 494.33904202 374.08000655 491.1640625 371.328125 C484.27330385 365.38955751 477.20232452 359.72788079 469.9765625 354.203125 C469.23664063 353.63722656 468.49671875 353.07132813 467.734375 352.48828125 C450.599493 339.42644498 433.04791091 326.93906347 414.9765625 315.203125 C414.28336914 314.75291992 413.59017578 314.30271484 412.87597656 313.83886719 C341.47098544 267.68030181 262.51415795 232.86088675 177.9765625 211.203125 C177.27096191 211.02328064 176.56536133 210.84343628 175.83837891 210.65814209 C133.62650936 199.95379521 90.90221236 192.82993001 47.5390625 188.953125 C46.61287109 188.86995026 45.68667969 188.78677551 44.73242188 188.70108032 C22.42957338 186.72469306 0.24025091 185.99518338 -22.1484375 186.015625 C-23.37843475 186.01622925 -24.60843201 186.0168335 -25.8757019 186.01745605 C-45.99369087 186.04417382 -65.97788295 186.48005739 -86.0234375 188.203125 Z " fill="#0057A8" transform="translate(1157.0234375,237.796875)"/>
<path d="M0 0 C0.87988586 0.07541016 1.75977173 0.15082031 2.6663208 0.22851562 C31.598496 2.74157073 60.2185979 6.50474033 88.8057251 11.60870361 C90.81301929 11.96665647 92.82125927 12.3192951 94.82958984 12.67138672 C120.67731325 17.23491279 146.40039429 23.20723083 171.49023438 30.92626953 C174.85435368 31.95544292 178.22376704 32.96483985 181.59506226 33.97015381 C222.90484686 46.30510258 263.14286343 61.20174804 302.14013672 79.64794922 C305.07946635 81.03756912 308.02593428 82.41129187 310.97265625 83.78515625 C363.78532819 108.5870833 413.59812095 139.68497285 460 175 C460.58797363 175.44617676 461.17594727 175.89235352 461.78173828 176.35205078 C468.40105632 181.37987982 474.92522994 186.50779071 481.3359375 191.80078125 C483.08426712 193.24405042 484.8392961 194.67925015 486.6015625 196.10546875 C497.81197742 205.18292862 508.6603793 214.66847685 519.24609375 224.46484375 C521.76175281 226.78067741 524.31193035 229.04949704 526.875 231.3125 C531.75857592 235.68408812 536.35170065 240.31918228 540.95727539 244.97875977 C543.98383273 248.02855045 547.02340265 250.97954275 550.3125 253.75 C554.07927605 256.94339788 557.25000885 260.55083186 560.5078125 264.25390625 C563.28593971 267.3150715 566.18281352 270.22300482 569.125 273.125 C572.98673589 276.94346714 576.71330181 280.81671863 580.234375 284.953125 C582.3943342 287.45714849 584.63487993 289.87997698 586.875 292.3125 C590.94417391 296.77388345 594.79977816 301.35944718 598.58984375 306.05859375 C600.81746317 308.77722815 603.09327329 311.44162365 605.39550781 314.09667969 C611.11464854 320.69234483 616.53866773 327.44499356 621.79541016 334.41308594 C623.77679195 337.02333759 625.79991125 339.60127484 627.8125 342.1875 C634.07960419 350.30923122 640.04601398 358.64748078 646 367 C646.5676709 367.79325684 647.1353418 368.58651367 647.72021484 369.40380859 C696.63628199 437.88077692 734.55106954 514.23709599 761.30401611 593.92706299 C761.9721074 595.91692395 762.64375065 597.9055559 763.31591797 599.89404297 C768.98355324 616.74996884 773.7250624 633.74235178 778 651 C778.39192702 652.54980905 778.78500547 654.09932777 779.1796875 655.6484375 C780.14020476 659.42737394 781.0753328 663.21210891 782 667 C782.15533203 667.63389648 782.31066406 668.26779297 782.47070312 668.92089844 C785.63206911 681.87993915 788.37457797 694.92287885 791 708 C791.31155029 709.53430664 791.31155029 709.53430664 791.62939453 711.09960938 C798.73397338 746.40586673 803.48812494 783.00369824 805 819 C805.04366699 819.91813477 805.08733398 820.83626953 805.13232422 821.78222656 C808.53255972 895.21357503 804.99535515 969.15188365 789.79199219 1041.19677734 C789.06794294 1044.67373149 788.38537807 1048.15471835 787.7265625 1051.64453125 C783.3951655 1074.49688099 777.8372609 1097.21411142 770.82104492 1119.39575195 C770.18671813 1121.40775428 769.56093216 1123.4224505 768.9387207 1125.43823242 C750.49127485 1185.16067004 726.91151814 1243.57533205 696 1298 C695.42427246 1299.02109863 694.84854492 1300.04219727 694.25537109 1301.09423828 C685.62951016 1316.36771991 676.60468564 1331.32259835 667 1346 C666.48872559 1346.7827832 665.97745117 1347.56556641 665.45068359 1348.37207031 C653.24678147 1367.00137651 640.38277112 1385.07697742 626.77001953 1402.70263672 C625.22129541 1404.71277382 623.68328754 1406.73021941 622.15234375 1408.75390625 C617.18520342 1415.3067733 612.00184897 1421.63090155 606.65625 1427.875 C604.19835363 1430.75080959 601.81304799 1433.68065883 599.4375 1436.625 C595.56070231 1441.38950808 591.48528468 1445.9364389 587.328125 1450.45703125 C585.39305738 1452.57067054 583.49791703 1454.70659848 581.625 1456.875 C571.06357294 1468.9725469 559.80889352 1480.34846684 548.44433594 1491.68603516 C545.73776675 1494.38720886 543.03663104 1497.09373429 540.3359375 1499.80078125 C538.5940708 1501.54198765 536.8518942 1503.28288409 535.109375 1505.0234375 C534.31335876 1505.82147797 533.51734253 1506.61951843 532.69720459 1507.44174194 C528.49768917 1511.6238737 524.22303359 1515.65364196 519.72462463 1519.51348877 C517.14841716 1521.73400752 514.67620704 1524.05684771 512.1875 1526.375 C507.56700451 1530.64395194 502.80893248 1534.68031294 497.90625 1538.625 C495.19867807 1540.83763943 492.54853153 1543.1010582 489.9074707 1545.3918457 C483.4316924 1551.00726174 476.80208624 1556.35527312 469.95703125 1561.515625 C467.70095374 1563.22682151 465.45975536 1564.9566136 463.21875 1566.6875 C451.37940687 1575.81043778 439.35072366 1584.58241501 427 1593 C426.14937988 1593.57991699 425.29875977 1594.15983398 424.42236328 1594.75732422 C397.54399941 1613.01366093 369.67254083 1629.72231449 341 1645 C339.9996875 1645.53705566 338.999375 1646.07411133 337.96875 1646.62744141 C299.87657216 1667.02461226 260.12440349 1683.69919096 219.31884766 1697.84423828 C215.96040891 1699.01378727 212.6106207 1700.20578725 209.26171875 1701.40234375 C196.5551246 1705.91530492 183.83417373 1709.85761278 170.78808594 1713.25537109 C167.90204069 1714.02616251 165.03297003 1714.84356097 162.1640625 1715.67578125 C110.12106785 1730.76003571 55.86875797 1739.18529775 1.9375 1743.8125 C0.93248444 1743.89886215 0.93248444 1743.89886215 -0.09283447 1743.98696899 C-4.72528442 1744.37641125 -9.3605753 1744.70713439 -14 1745 C-14.73808899 1745.04699036 -15.47617798 1745.09398071 -16.2366333 1745.14239502 C-32.72907413 1746.1511714 -49.23191545 1746.24524556 -65.75 1746.25 C-66.45707722 1746.25044186 -67.16415443 1746.25088371 -67.89265823 1746.25133896 C-109.22483081 1746.26481196 -150.04209863 1743.59202956 -191 1738 C-192.85407471 1737.75080811 -192.85407471 1737.75080811 -194.74560547 1737.49658203 C-230.93896138 1732.54898745 -267.49001141 1725.12776831 -302.52734375 1714.73095703 C-305.48294244 1713.85723443 -308.44489491 1713.00634983 -311.40625 1712.15234375 C-396.08006663 1687.48681886 -476.32829226 1650.39933203 -610 1558 C-610.89332031 1557.29101562 -611.78664063 1556.58203125 -612.70703125 1555.8515625 C-615.14466056 1553.90913662 -617.5742028 1551.95717729 -620 1550 C-620.8353125 1549.32839844 -621.670625 1548.65679688 -622.53125 1547.96484375 C-633.76221076 1538.86446231 -644.63367615 1529.35547167 -655.2421875 1519.5390625 C-657.78056916 1517.20202556 -660.35280834 1514.91049905 -662.9375 1512.625 C-667.57410948 1508.47370391 -671.9444083 1504.08966538 -676.31518555 1499.66333008 C-679.20162058 1496.75291635 -682.11260603 1493.95616066 -685.25 1491.3125 C-689.01220073 1488.11345613 -692.18377985 1484.51614457 -695.44140625 1480.8125 C-698.40221978 1477.55786528 -701.49507061 1474.46571615 -704.625 1471.375 C-708.6663595 1467.37516132 -712.58677331 1463.34918921 -716.26953125 1459.01171875 C-718.41533274 1456.51716397 -720.64585677 1454.10781018 -722.875 1451.6875 C-726.94859909 1447.22126486 -730.80827703 1442.63078621 -734.6015625 1437.92578125 C-736.77243811 1435.27759586 -738.9930867 1432.68835548 -741.24243164 1430.10742188 C-747.96702344 1422.37985857 -754.20219334 1414.34079317 -760.36328125 1406.16015625 C-761.96733969 1404.04310537 -763.58916524 1401.94119608 -765.21875 1399.84375 C-822.59884397 1325.88253499 -866.6940268 1240.7977555 -903 1132 C-903.39348633 1130.78086914 -903.78697266 1129.56173828 -904.19238281 1128.30566406 C-916.5225851 1089.8218181 -924.96030356 1050.43325646 -931.41552734 1010.58056641 C-931.8908625 1007.66859258 -932.38391046 1004.76138704 -932.89453125 1001.85546875 C-941.50238642 952.0738343 -942.70451205 901.22617181 -942.03710938 850.84521484 C-942.00454735 848.3486502 -941.97753131 845.85212315 -941.953125 843.35546875 C-941.53499084 808.12766553 -937.71966272 772.81211213 -932.31317139 738.02301025 C-932.00517883 736.03345398 -931.703947 734.04285489 -931.40283203 732.05224609 C-928.66598119 714.07015616 -925.03137446 696.3914096 -920.86425781 678.69824219 C-920.03248392 675.13900183 -919.22613023 671.57510681 -918.4296875 668.0078125 C-915.40791516 654.52175447 -912.01397597 641.22459745 -908 628 C-907.49895752 626.34677734 -907.49895752 626.34677734 -906.98779297 624.66015625 C-904.37928213 616.08950256 -901.70457734 607.54077054 -899 599 C-898.68337402 597.99130859 -898.36674805 596.98261719 -898.04052734 595.94335938 C-870.67337986 509.18462279 -826.28830983 426.89135398 -733.08984375 304.59375 C-731.08853441 302.27215595 -729.1016574 299.93965113 -727.12890625 297.59375 C-719.73659194 288.82861333 -711.95772349 280.47695952 -704.05664062 272.16992188 C-700.05751067 267.95051696 -696.09735243 263.69433212 -692.13549805 259.43994141 C-687.06427466 254.01511109 -681.97476991 248.62735003 -676.3125 243.8125 C-672.6985704 240.70381881 -669.3474068 237.38861689 -666 234 C-662.11556338 230.07274472 -658.18895891 226.28294336 -653.98046875 222.69921875 C-651.67330048 220.71969568 -649.43353218 218.6735788 -647.1875 216.625 C-642.89040173 212.74649273 -638.46241246 209.07134032 -633.9609375 205.43359375 C-631.30221981 203.24839438 -628.69933561 201.01586219 -626.10522461 198.75537109 C-618.3818865 192.03572911 -610.34864421 185.80305413 -602.17333984 179.64550781 C-600.01799873 178.01362744 -597.8761687 176.36560044 -595.73828125 174.7109375 C-522.61040388 118.15129247 -439.27020105 74.96511515 -309.09765625 31.3515625 C-305.79330461 30.4891236 -302.51517479 29.57362018 -299.24609375 28.5859375 C-283.41873945 23.81752198 -267.31519179 20.36957443 -251.16455078 16.89892578 C-247.66692161 16.14659957 -244.1746109 15.37234289 -240.68359375 14.58984375 C-162.72745508 -2.64292139 -79.44424243 -6.83786446 0 0 Z M-157 91 C-157.74608521 91.06316406 -158.49217041 91.12632812 -159.26086426 91.19140625 C-219.68794853 96.34946899 -279.17478539 107.63088514 -337 126 C-337.66513611 126.21118469 -338.33027222 126.42236938 -339.01556396 126.63995361 C-358.98716424 132.9993863 -378.61654187 140.00162137 -398 148 C-399.14243164 148.47018555 -400.28486328 148.94037109 -401.46191406 149.42480469 C-418.52600729 156.49059266 -435.20185209 164.23620326 -451.75878906 172.40283203 C-454.65457651 173.82978604 -457.55636412 175.24339273 -460.4609375 176.65234375 C-494.85066028 193.44451518 -528.2862172 213.78514551 -559.03027344 236.55224609 C-561.51820929 238.38088511 -564.03554737 240.16556085 -566.55737305 241.94702148 C-578.84250357 250.62983526 -590.54818023 259.98898333 -602.18408203 269.51611328 C-603.76299721 270.80633195 -605.34778627 272.08935588 -606.93359375 273.37109375 C-618.83235083 283.00678856 -630.26369678 293.12001731 -641.40234375 303.62109375 C-643.62634893 305.71757435 -645.86342527 307.79607715 -648.12890625 309.84765625 C-655.06171341 316.13258926 -661.74810639 322.6430106 -668.375 329.25 C-669.21957764 330.08998535 -670.06415527 330.9299707 -670.93432617 331.79541016 C-675.23550311 336.10724095 -679.38137139 340.48752696 -683.35107422 345.10595703 C-686.09892939 348.26228816 -688.99678093 351.2755467 -691.875 354.3125 C-696.70980198 359.45369721 -701.32739993 364.6862451 -705.734375 370.203125 C-708.37936143 373.46831515 -711.12308609 376.63755019 -713.875 379.8125 C-719.24730707 386.04498457 -724.39314501 392.42159584 -729.41308594 398.94042969 C-730.54894812 400.41460406 -731.68798412 401.88633513 -732.82910156 403.35644531 C-741.80760724 414.92963624 -750.42407459 426.66623112 -758.56103516 438.84667969 C-759.90196411 440.85329546 -761.25203699 442.85336728 -762.60546875 444.8515625 C-800.80998095 501.43607141 -831.32014398 562.65414679 -854 627 C-854.24278687 627.68582153 -854.48557373 628.37164307 -854.73571777 629.07824707 C-862.63449941 651.41862342 -869.17584982 674.03562019 -875 697 C-875.18304687 697.7188739 -875.36609375 698.4377478 -875.5546875 699.17840576 C-886.3106034 741.52136112 -893.10568861 784.60189372 -896.75 828.125 C-896.80925659 828.83079193 -896.86851318 829.53658386 -896.92956543 830.26376343 C-898.65425926 851.18814042 -899.20828519 872.07034283 -899.1875 893.0625 C-899.18656342 894.29287994 -899.18562683 895.52325989 -899.18466187 896.79092407 C-899.12594127 932.55176706 -896.41110387 967.51807511 -892 1003 C-891.91534485 1003.68666748 -891.8306897 1004.37333496 -891.74346924 1005.08081055 C-883.04816077 1075.24809086 -862.8108701 1145.0994434 -835 1210 C-834.49033691 1211.19286621 -833.98067383 1212.38573242 -833.45556641 1213.61474609 C-821.00907574 1242.52413408 -806.99837297 1270.88857493 -791 1298 C-790.51934082 1298.82209961 -790.03868164 1299.64419922 -789.54345703 1300.49121094 C-778.20956302 1319.85184447 -766.28116452 1338.91210184 -753 1357 C-752.20710332 1358.11539183 -751.41679396 1359.23262683 -750.62890625 1360.3515625 C-741.54603631 1373.24331896 -731.95441564 1385.76910677 -722 1398 C-721.30777344 1398.85464844 -720.61554688 1399.70929688 -719.90234375 1400.58984375 C-711.43845581 1410.99430565 -702.83853765 1421.22881151 -693.703125 1431.05078125 C-691.63469682 1433.28507212 -689.62624891 1435.56526034 -687.62890625 1437.86328125 C-678.34883669 1448.50658875 -668.4648635 1458.62587157 -658.5 1468.625 C-657.40691528 1469.72497314 -657.40691528 1469.72497314 -656.29174805 1470.84716797 C-652.30930181 1474.81823188 -648.22867162 1478.60445872 -643.96923828 1482.27587891 C-640.61683947 1485.21099426 -637.41489302 1488.30400223 -634.1875 1491.375 C-628.87186886 1496.3951818 -623.48341024 1501.21099379 -617.76171875 1505.76953125 C-614.50531775 1508.39952414 -611.34988262 1511.13345853 -608.1875 1513.875 C-601.29672429 1519.81487295 -594.20759838 1525.45125288 -587 1531 C-586.2064209 1531.61423828 -585.4128418 1532.22847656 -584.59521484 1532.86132812 C-573.93432254 1541.10634255 -563.20816167 1549.17331599 -552.00097656 1556.66259766 C-549.88913073 1558.07410223 -547.78429434 1559.49569661 -545.6796875 1560.91796875 C-473.26369307 1609.70264633 -394.26494485 1646.18485291 52 1686 C53.99474096 1685.62993493 55.98953166 1685.26013784 57.984375 1684.890625 C114.23920447 1674.25344915 169.37821733 1657.54922976 222 1635 C223.19286621 1634.49033691 224.38573242 1633.98067383 225.61474609 1633.45556641 C254.52215326 1621.00992855 282.89479801 1607.00552491 310 1591 C311.25707764 1590.26305908 311.25707764 1590.26305908 312.53955078 1589.51123047 C349.9589342 1567.53683313 386.10825584 1542.81810297 419.0546875 1514.51171875 C421.85379079 1512.12468504 424.69685091 1509.80639849 427.5625 1507.5 C432.55168418 1503.44174232 437.27670615 1499.15484434 441.98046875 1494.7734375 C444.2424087 1492.67503435 446.55038191 1490.63750658 448.87890625 1488.61328125 C459.87450662 1479.02770645 470.2980367 1468.795397 480.625 1458.5 C481.45354492 1457.67604736 482.28208984 1456.85209473 483.13574219 1456.00317383 C487.3667574 1451.76141345 491.43597181 1447.44492531 495.34228516 1442.90283203 C498.09393734 1439.74430816 500.99392111 1436.72747083 503.875 1433.6875 C508.70980198 1428.54630279 513.32739993 1423.3137549 517.734375 1417.796875 C520.37936143 1414.53168485 523.12308609 1411.36244981 525.875 1408.1875 C531.81480175 1401.29665733 537.45124854 1394.20760403 543 1387 C543.61423828 1386.2064209 544.22847656 1385.4128418 544.86132812 1384.59521484 C553.07337507 1373.97694984 561.11395597 1363.29724373 568.57226562 1352.13427734 C570.14880873 1349.77755028 571.7384126 1347.42989327 573.328125 1345.08203125 C592.8556074 1316.13946424 610.40509331 1286.0795186 626.05926514 1254.875 C626.68668378 1253.62447766 627.31514375 1252.37447723 627.94464111 1251.125 C658.57957353 1190.30951283 680.50921127 1125.19619989 694.26367188 1058.54394531 C694.93058684 1055.33408533 695.62415534 1052.13157971 696.328125 1048.9296875 C702.33970017 1021.05698638 705.80012876 992.62918784 708.3125 964.25 C708.39372101 963.33980103 708.47494202 962.42960205 708.55862427 961.49182129 C710.52540991 939.12461434 711.21026598 916.82478614 711.1875 894.375 C711.18656342 893.17046173 711.18562683 891.96592346 711.18466187 890.72488403 C711.03003335 798.44060408 694.54337057 707.96411299 647 578 C646.24203125 576.23027832 646.24203125 576.23027832 645.46875 574.42480469 C633.02033547 545.50288241 619.01296166 517.11779604 603 490 C602.26305908 488.74292236 602.26305908 488.74292236 601.51123047 487.46044922 C579.53683313 450.0410658 554.81810297 413.89174416 526.51171875 380.9453125 C524.12468504 378.14620921 521.80639849 375.30314909 519.5 372.4375 C515.3783014 367.37032215 511.01087398 362.57433941 506.5703125 357.7890625 C504.41922571 355.4549045 502.32074342 353.09253383 500.25 350.6875 C497.57430071 347.59770439 494.74661957 344.72239038 491.8293457 341.86181641 C490.12024856 340.12238296 488.54114156 338.33211538 486.96484375 336.47265625 C482.69519434 331.56385805 478.12004596 326.96940585 473.51196289 322.3815918 C472.06475615 320.93974779 470.62297974 319.49262884 469.18164062 318.04492188 C464.5384446 313.39839269 459.83691216 308.87789946 454.84790039 304.6027832 C451.70297478 301.8750204 448.70859812 298.98819261 445.6875 296.125 C440.54630279 291.29019802 435.3137549 286.67260007 429.796875 282.265625 C426.53168326 279.62063728 423.36247952 276.87688155 420.1875 274.125 C413.29674135 268.18643251 406.22576202 262.52475579 399 257 C398.26007813 256.43410156 397.52015625 255.86820313 396.7578125 255.28515625 C379.6229305 242.22331998 362.07134841 229.73593847 344 218 C343.30680664 217.54979492 342.61361328 217.09958984 341.89941406 216.63574219 C270.49442294 170.47717681 191.53759545 135.65776175 107 114 C106.29439941 113.82015564 105.58879883 113.64031128 104.86181641 113.45501709 C62.64994686 102.75067021 19.92564986 95.62680501 -23.4375 91.75 C-24.36369141 91.66682526 -25.28988281 91.58365051 -26.24414062 91.49795532 C-48.54698912 89.52156806 -70.73631159 88.79205838 -93.125 88.8125 C-94.35499725 88.81310425 -95.58499451 88.8137085 -96.8522644 88.81433105 C-116.97025337 88.84104882 -136.95444545 89.27693239 -157 91 Z " fill="#0097D7" transform="translate(1228,335)"/>
<path d="M0 0 C1.22999725 0.00060425 2.45999451 0.0012085 3.7272644 0.00183105 C23.84322127 0.02854612 43.83189361 0.45007508 63.875 2.1875 C65.01533691 2.28578094 65.01533691 2.28578094 66.17871094 2.38604736 C130.07154773 7.95707155 193.02236017 20.22243996 253.91381836 40.53509521 C255.83075123 41.17278025 257.75031143 41.80255003 259.66992188 42.43212891 C310.0379741 58.9837268 359.21290621 81.24243145 404.875 108.1875 C405.69709961 108.66815918 406.51919922 109.14881836 407.36621094 109.64404297 C427.47832586 121.41786114 447.17215758 133.86718713 465.90527344 147.73974609 C468.39371824 149.56875919 470.91161937 151.35374369 473.43383789 153.13574219 C484.22032669 160.75821429 494.61333296 168.87342208 504.875 177.1875 C506.16470703 178.23164062 506.16470703 178.23164062 507.48046875 179.296875 C517.87810356 187.75901935 528.10845724 196.35328334 537.92578125 205.484375 C540.17224976 207.56381546 542.46416117 209.58432535 544.7734375 211.59375 C555.20889958 220.69291132 565.13429539 230.35337233 574.9375 240.125 C575.72229736 240.90520508 576.50709473 241.68541016 577.31567383 242.48925781 C581.48241716 246.66714574 585.4886181 250.92267587 589.31616211 255.41430664 C590.93251276 257.25292133 592.62744855 258.97381185 594.375 260.6875 C598.08699457 264.35032908 601.48346641 268.22856155 604.875 272.1875 C605.73867187 273.18523437 606.60234375 274.18296875 607.4921875 275.2109375 C625.2746583 295.79085412 642.1343304 317.00430994 657.875 339.1875 C658.44750488 339.98945801 659.02000977 340.79141602 659.60986328 341.61767578 C682.16481383 373.23693988 701.65845894 406.82236372 719.40771484 441.34082031 C720.76809495 443.98009354 722.14300713 446.61131289 723.51953125 449.2421875 C761.59026387 522.8141109 785.51042373 605.03416838 804.05859375 863.04711914 C803.86023312 865.35965585 803.67178436 867.67287903 803.484375 869.98632812 C796.41623755 956.43023772 776.06887484 1041.39130876 741.875 1121.1875 C741.36533691 1122.38036621 740.85567383 1123.57323242 740.33056641 1124.80224609 C727.88293258 1153.71428929 713.86523104 1182.06880201 697.875 1209.1875 C697.3078125 1210.16090332 696.740625 1211.13430664 696.15625 1212.13720703 C686.36373752 1228.92782259 675.83783129 1245.14678475 664.875 1261.1875 C664.03026123 1262.4245166 664.03026123 1262.4245166 663.16845703 1263.68652344 C644.49037596 1290.90095555 623.74206473 1317.18339015 601.359375 1341.45703125 C599.38622786 1343.62563165 597.45066077 1345.81505877 595.52734375 1348.02734375 C585.92280466 1359.03141613 575.68383442 1369.47205808 565.375 1379.8125 C564.55104736 1380.64104492 563.72709473 1381.46958984 562.87817383 1382.32324219 C558.63641345 1386.5542574 554.31992531 1390.62347181 549.77783203 1394.52978516 C546.61930881 1397.28143677 543.60245981 1400.18141043 540.5625 1403.0625 C535.44477623 1407.8755672 530.2355826 1412.46662694 524.7421875 1416.8515625 C521.25341456 1419.69391429 517.88224101 1422.65752179 514.5 1425.625 C508.45418002 1430.90052652 502.25100285 1435.88527402 495.83349609 1440.70605469 C493.53003969 1442.44843482 491.24351475 1444.21197006 488.95703125 1445.9765625 C479.15771787 1453.52424499 469.29485131 1460.88766793 459.00927734 1467.75976562 C456.65255028 1469.33630873 454.30489327 1470.9259126 451.95703125 1472.515625 C423.01446424 1492.0431074 392.9545186 1509.59259331 361.75 1525.24676514 C360.49947766 1525.87418378 359.24947723 1526.50264375 358 1527.13214111 C288.54078492 1562.12122792 213.00995478 1586.28985294 73.875 1607.1875 C72.999646 1607.2710675 72.12429199 1607.35463501 71.22241211 1607.44073486 C-20.28743019 1616.08029791 -113.43914488 1607.70095341 -315.125 1546.1875 C-316.31351563 1545.67928711 -317.50203125 1545.17107422 -318.7265625 1544.64746094 C-347.64078989 1532.20004492 -376.00937603 1518.18835073 -403.125 1502.1875 C-403.94709961 1501.70684082 -404.76919922 1501.22618164 -405.61621094 1500.73095703 C-426.01758411 1488.78780441 -446.02055593 1476.11903468 -465.125 1462.1875 C-465.87410645 1461.64416016 -466.62321289 1461.10082031 -467.39501953 1460.54101562 C-482.71146301 1449.41907737 -497.82305753 1438.03561451 -512.18359375 1425.6953125 C-514.9595394 1423.32856999 -517.78063193 1421.03367969 -520.625 1418.75 C-525.3799105 1414.88359833 -529.89161645 1410.80221132 -534.359375 1406.61157227 C-537.20386852 1403.94485959 -540.08421277 1401.33520125 -543.02734375 1398.77734375 C-553.66206336 1389.51611191 -563.7643344 1379.63894681 -573.75 1369.6875 C-574.48331543 1368.95877686 -575.21663086 1368.23005371 -575.97216797 1367.47924805 C-579.94323188 1363.49680181 -583.72945872 1359.41617162 -587.40087891 1355.15673828 C-590.33599426 1351.80433947 -593.42900223 1348.60239302 -596.5 1345.375 C-601.5201818 1340.05936886 -606.33599379 1334.67091024 -610.89453125 1328.94921875 C-613.52452414 1325.69281775 -616.25845853 1322.53738262 -619 1319.375 C-624.37237141 1313.14257606 -629.51814891 1306.7658991 -634.53808594 1300.24707031 C-635.67394812 1298.77289594 -636.81298412 1297.30116487 -637.95410156 1295.83105469 C-646.93260724 1284.25786376 -655.54907459 1272.52126888 -663.68603516 1260.34082031 C-665.02696411 1258.33420454 -666.37703699 1256.33413272 -667.73046875 1254.3359375 C-715.63399908 1183.38626212 -752.30001025 1104.45571966 -787.69396973 968.25933838 C-788.11244464 966.24785 -788.53721666 964.23779566 -788.96386719 962.22802734 C-793.35632497 941.38637152 -796.33849154 920.46758474 -798.8671875 899.33270264 C-799.10667611 897.33996918 -799.35192788 895.34793067 -799.59765625 893.35595703 C-805.7083412 843.47267411 -806.42854474 792.25340574 -802.125 742.1875 C-802.06183594 741.44141479 -801.99867188 740.69532959 -801.93359375 739.92663574 C-796.70175361 678.63524382 -785.29750241 618.06930004 -766.21630859 559.5390625 C-765.13504767 556.2183578 -764.07641837 552.89103049 -763.01953125 549.5625 C-751.57678205 513.95524876 -736.55240968 479.74893352 -720.125 446.1875 C-719.66625488 445.24277832 -719.20750977 444.29805664 -718.73486328 443.32470703 C-711.74959918 428.95423033 -704.16881945 414.99236689 -696.125 401.1875 C-695.63418945 400.34509766 -695.14337891 399.50269531 -694.63769531 398.63476562 C-683.31214796 379.29622099 -671.39228728 360.25649846 -658.125 342.1875 C-657.33210332 341.07210817 -656.54179396 339.95487317 -655.75390625 338.8359375 C-645.59810834 324.41908003 -634.75280188 310.56232441 -623.56054688 296.93896484 C-622.28912789 295.38774719 -621.0266989 293.82917066 -619.765625 292.26953125 C-610.10820851 280.33874483 -599.96416121 268.8859493 -589.4375 257.71875 C-586.57984683 254.6853414 -583.78602544 251.5994533 -581 248.5 C-575.79657648 242.80802852 -570.38209552 237.33595013 -564.9375 231.875 C-564.09364746 231.02655518 -563.24979492 230.17811035 -562.38037109 229.30395508 C-558.06104356 224.99523285 -553.67479096 220.84171655 -549.0480957 216.86547852 C-545.707162 213.9503792 -542.52405656 210.86842872 -539.3125 207.8125 C-533.99686886 202.7923182 -528.60841024 197.97650621 -522.88671875 193.41796875 C-519.63031609 190.78797453 -516.4749122 188.05400937 -513.3125 185.3125 C-506.42180897 179.37386155 -499.35075578 173.71225102 -492.125 168.1875 C-491.38507813 167.62160156 -490.64515625 167.05570313 -489.8828125 166.47265625 C-472.7479305 153.41081998 -455.19634841 140.92343847 -437.125 129.1875 C-436.43180664 128.73729492 -435.73861328 128.28708984 -435.02441406 127.82324219 C-359.21656882 78.81852521 -275.72324341 43.62920258 -184.125 21.1875 C-182.3915332 20.76259277 -182.3915332 20.76259277 -180.62304688 20.32910156 C-137.38186908 9.861683 -92.53503288 3.66148064 -48.125 1.1875 C-47.42717407 1.14619965 -46.72934814 1.10489929 -46.01037598 1.06234741 C-30.67325794 0.16736718 -15.3607831 -0.01402491 0 0 Z M-147.125 93.1875 C-148.37345703 93.39987305 -149.62191406 93.61224609 -150.90820312 93.83105469 C-158.02958512 95.08106162 -165.07802735 96.5731061 -172.125 98.1875 C-172.87952454 98.35914673 -173.63404907 98.53079346 -174.41143799 98.7076416 C-180.77968875 100.15726168 -187.1409958 101.6353928 -193.5 103.125 C-194.38338043 103.33033356 -195.26676086 103.53566711 -196.1769104 103.7472229 C-207.25845685 106.33404037 -218.12120728 109.29770146 -228.93701172 112.83935547 C-232.88870717 114.13081695 -236.86826317 115.26629621 -240.875 116.375 C-299.01845862 133.13910387 -354.92510032 160.47096445 -406.17285156 192.3515625 C-408.73143644 193.94274331 -411.29684363 195.52167424 -413.8671875 197.09375 C-423.17433999 202.80864894 -432.2036073 208.88906358 -441.125 215.1875 C-441.83914063 215.69152344 -442.55328125 216.19554687 -443.2890625 216.71484375 C-458.68121018 227.61988124 -473.64971395 239.08907305 -488.125 251.1875 C-488.63869141 251.61627441 -489.15238281 252.04504883 -489.68164062 252.48681641 C-496.09815717 257.85103946 -502.43289688 263.28518692 -508.61328125 268.921875 C-510.70193266 270.80588405 -512.81099266 272.65855864 -514.93359375 274.50390625 C-525.94449077 284.12353469 -536.39878782 294.36792824 -546.75 304.6875 C-547.57854492 305.51145264 -548.40708984 306.33540527 -549.26074219 307.18432617 C-553.51202556 311.44640618 -557.6046074 315.78313997 -561.52978516 320.34716797 C-563.94583425 323.13446183 -566.47686377 325.81004134 -569 328.5 C-573.46649123 333.30092185 -577.70138116 338.22564747 -581.8046875 343.34375 C-583.44866338 345.35858913 -585.10591071 347.32883753 -586.8203125 349.28125 C-594.84881375 358.42890039 -602.13858269 368.03515635 -609.36572266 377.82421875 C-610.90364856 379.89015308 -612.46315013 381.93480903 -614.04296875 383.96875 C-636.04774289 412.40628543 -654.97056651 443.74896808 -671.7109375 475.51513672 C-673.00930779 477.9688593 -674.32790037 480.41007162 -675.65625 482.84765625 C-705.26809782 537.52808251 -725.13795934 596.81258271 -739.61981201 657.09185791 C-740.30191383 659.92138138 -740.99796116 662.74745711 -741.69140625 665.57421875 C-745.31726606 680.62921254 -747.77275176 695.88907286 -750.125 711.1875 C-750.30949707 712.38294434 -750.49399414 713.57838867 -750.68408203 714.81005859 C-752.8491125 729.06235796 -754.53397162 743.33162593 -755.8125 757.6875 C-755.87334778 758.3623645 -755.93419556 759.037229 -755.99688721 759.73254395 C-757.91089324 781.25342502 -758.39689915 802.77551282 -758.4375 824.375 C-758.43894516 825.04367474 -758.44039032 825.71234947 -758.44187927 826.40128708 C-758.48885915 853.46557878 -757.05410041 880.27235873 -754.125 907.1875 C-754.04529968 907.92284973 -753.96559937 908.65819946 -753.88348389 909.41583252 C-752.89619858 918.38607764 -751.59881555 927.28551771 -750.125 936.1875 C-749.8708248 937.74640196 -749.61676268 939.30532236 -749.36279297 940.86425781 C-746.18618849 960.25397208 -742.70965899 979.47440616 -737.79833984 998.51123047 C-737.14305905 1001.11572216 -736.53998529 1003.72611443 -735.95703125 1006.34765625 C-732.559874 1021.56405935 -727.96586945 1036.3756587 -723.125 1051.1875 C-722.90072327 1051.8747113 -722.67644653 1052.56192261 -722.44537354 1053.2699585 C-712.83048755 1082.66171558 -701.74538654 1111.30021581 -688.50634766 1139.26464844 C-687.06785 1142.30842609 -685.64903384 1145.36095046 -684.23046875 1148.4140625 C-677.93054954 1161.86647477 -671.02092659 1174.83440781 -663.56787109 1187.68066406 C-662.29807393 1189.88680235 -661.05561725 1192.10394975 -659.83203125 1194.3359375 C-650.00390537 1212.26023023 -638.94085909 1229.51329699 -627.125 1246.1875 C-626.29944452 1247.36195481 -625.47392341 1248.53643379 -624.6484375 1249.7109375 C-612.40004814 1267.06079803 -599.53299812 1283.97737348 -585.7265625 1300.1171875 C-583.38242299 1302.86484045 -581.12616684 1305.67550228 -578.875 1308.5 C-573.2486376 1315.41468868 -567.06270936 1321.80230952 -560.93261719 1328.26660156 C-558.86626696 1330.46244753 -556.83759067 1332.68981062 -554.81274414 1334.92382812 C-549.00944473 1341.31126934 -542.96776212 1347.4513979 -536.875 1353.5625 C-536.03493408 1354.4071582 -535.19486816 1355.25181641 -534.3293457 1356.12207031 C-530.007437 1360.4332992 -525.61710812 1364.59076528 -520.98779297 1368.56982422 C-518.01692745 1371.14976588 -515.17430957 1373.86303037 -512.3125 1376.5625 C-507.33835106 1381.21712895 -502.25632598 1385.64570303 -496.93359375 1389.90234375 C-494.93028245 1391.53229801 -492.97411086 1393.17624861 -491.03515625 1394.87890625 C-481.88667038 1402.90930423 -472.27884064 1410.19997748 -462.48828125 1417.42822266 C-460.42234692 1418.96614856 -458.37769097 1420.52565013 -456.34375 1422.10546875 C-428.00190039 1444.03620185 -396.75440722 1462.97375036 -365.07714844 1479.63134766 C-362.09802021 1481.20172173 -359.13076839 1482.79302177 -356.1640625 1484.38671875 C-301.62387474 1513.47071966 -243.17076549 1533.14652979 -183.26348877 1547.66802979 C-181.39345618 1548.12228807 -179.52451449 1548.58103247 -177.65576172 1549.04052734 C-161.63087222 1552.97025701 -145.42749499 1555.68086878 -129.125 1558.1875 C-127.3318335 1558.46424561 -127.3318335 1558.46424561 -125.50244141 1558.74658203 C-111.22916704 1560.91479875 -96.93983452 1562.59901257 -82.5625 1563.875 C-81.54379822 1563.96627167 -81.54379822 1563.96627167 -80.5045166 1564.05938721 C-59.76428041 1565.89252392 -39.06757585 1566.42606722 -18.25 1566.4375 C-16.96719147 1566.43850708 -15.68438293 1566.43951416 -14.36270142 1566.44055176 C20.28482125 1566.42231918 54.62497099 1564.53891865 88.875 1559.1875 C91.38145445 1558.81342692 93.88796629 1558.43973812 96.39453125 1558.06640625 C130.83390093 1552.82582248 165.43206133 1545.9445731 198.5234375 1534.95019531 C201.36876738 1534.02735369 204.22842283 1533.15680758 207.08984375 1532.28515625 C247.00132521 1520.04348407 286.82670828 1504.44417309 323.51123047 1484.453125 C326.04286694 1483.09761958 328.59695464 1481.79477981 331.16015625 1480.5 C345.84266631 1473.05543739 359.86154592 1464.7355028 373.84082031 1456.06591797 C376.35234375 1454.51106913 378.87133891 1452.97071836 381.3984375 1451.44140625 C399.96315828 1440.14437817 417.46132858 1427.22461946 434.62597656 1413.92529297 C436.61501165 1412.38838983 438.61251573 1410.86406687 440.6171875 1409.34765625 C447.68007642 1403.99663928 454.48612742 1398.39654325 461.20263672 1392.62158203 C462.91173737 1391.15599703 464.62876133 1389.70017427 466.34765625 1388.24609375 C473.83836008 1381.89406001 481.12147505 1375.35751118 488.296875 1368.65234375 C489.8123505 1367.24565238 491.34049257 1365.85462713 492.875 1364.46875 C499.85448453 1358.14559057 506.58061683 1351.58681847 513.25 1344.9375 C514.0944165 1344.09767578 514.93883301 1343.25785156 515.80883789 1342.39257812 C520.12031385 1338.07042491 524.2780386 1333.67987184 528.25732422 1329.05029297 C530.83726588 1326.07942745 533.55053037 1323.23680957 536.25 1320.375 C540.90139178 1315.40431045 545.3265005 1310.32528808 549.58203125 1305.0078125 C551.70951082 1302.39104887 553.89460911 1299.84321036 556.1105957 1297.30200195 C562.81920245 1289.59624296 569.07808483 1281.60253057 575.19970703 1273.42480469 C576.31454072 1271.93597695 577.43269829 1270.44963224 578.55419922 1268.96582031 C588.54933089 1255.73705442 597.82947001 1242.08021273 606.875 1228.1875 C607.41898438 1227.3521875 607.96296875 1226.516875 608.5234375 1225.65625 C647.94832149 1164.81785034 679.96732893 1096.94123341 698.23876953 1026.63232422 C698.78790222 1024.52218809 699.35382502 1022.41827837 699.93359375 1020.31640625 C700.74638816 1017.34515364 701.5297472 1014.36806096 702.29882812 1011.38525391 C702.72077921 1009.77576082 703.15326699 1008.16902006 703.59179688 1006.56396484 C719.95681118 946.59559031 726.11479959 883.74970814 726.0625 821.75 C726.06223312 821.08932148 726.06196625 820.42864296 726.06169128 819.74794388 C726.05160788 799.82324984 725.88633799 780.02820189 723.875 760.1875 C723.80947937 759.52538513 723.74395874 758.86327026 723.67645264 758.18109131 C716.11932412 681.89862513 698.5273227 607.49705828 621.875 444.1875 C621.16827148 442.99616455 621.16827148 442.99616455 620.44726562 441.78076172 C606.94152642 419.03295644 591.8826677 397.23867944 575.875 376.1875 C575.4728125 375.65769531 575.070625 375.12789062 574.65625 374.58203125 C563.12124484 359.40629008 550.94263213 344.75675683 538.10546875 330.6640625 C536.22697335 328.57830753 534.37767247 326.47285382 532.53515625 324.35546875 C523.40452083 313.90516643 513.73183445 303.95098477 503.9375 294.125 C503.15729492 293.34020264 502.37708984 292.55540527 501.57324219 291.74682617 C497.42815729 287.61279837 493.198381 283.64854213 488.76196289 279.8293457 C485.78498991 277.23908263 482.932607 274.51979637 480.0625 271.8125 C475.09181045 267.16110822 470.01278808 262.7359995 464.6953125 258.48046875 C462.07854887 256.35298918 459.53071036 254.16789089 456.98950195 251.9519043 C449.27557142 245.23618344 441.27273239 238.97274356 433.0859375 232.84521484 C430.92511842 231.22507775 428.77486607 229.59166058 426.625 227.95703125 C397.03077495 205.62906821 365.31468186 185.86879761 332.53417969 168.59716797 C330.11741611 167.31600814 327.71658962 166.01036551 325.3203125 164.69140625 C277.32375159 138.48518765 224.02119508 119.03311749 171.04052734 105.74365234 C168.86882359 105.18591377 166.70983649 104.59301101 164.55078125 103.98828125 C149.83347789 99.89554345 134.8927985 96.93402127 119.875 94.1875 C119.10605408 94.04572327 118.33710815 93.90394653 117.54486084 93.75787354 C29.67698619 77.62427756 -59.18180222 78.21636183 -147.125 93.1875 Z " fill="#92D9F7" transform="translate(1133.125,423.8125)"/>
<path d="M0 0 C3.25516428 3.16474305 6.32008793 6.32752791 9 10 C9 10.66 9 11.32 9 12 C8.34 12 7.68 12 7 12 C5.2734375 9.8828125 5.2734375 9.8828125 3.375 7.125 C2.74335937 6.22007813 2.11171875 5.31515625 1.4609375 4.3828125 C0 2 0 2 0 0 Z " fill="#20ACE0" transform="translate(594,1668)"/>
<path d="M0 0 C0.66 0.33 1.32 0.66 2 1 C-0.97 3.97 -3.94 6.94 -7 10 C-7 6.04435836 -5.59478606 4.89133304 -3 2 C-2.01 1.34 -1.02 0.68 0 0 Z " fill="#B0DFF4" transform="translate(761,1269)"/>
</svg>
